<?xml version="1.0" encoding="UTF-8" standalone="no"?>
<!DOCTYPE svg PUBLIC "-//W3C//DTD SVG 1.1//EN"
 "http://www.w3.org/Graphics/SVG/1.1/DTD/svg11.dtd">
<!-- Generated by graphviz version 2.40.1 (20161225.0304)
 -->
<!-- Title: public.users Pages: 1 -->
<svg width="599pt" height="1439pt"
 viewBox="0.00 0.00 598.50 1439.00" xmlns="http://www.w3.org/2000/svg" xmlns:xlink="http://www.w3.org/1999/xlink">
<g id="graph0" class="graph" transform="scale(1 1) rotate(0) translate(4 1435)">
<title>public.users</title>
<polygon fill="#ffffff" stroke="transparent" points="-4,4 -4,-1435 594.5,-1435 594.5,4 -4,4"/>
<!-- public.users -->
<g id="node1" class="node">
<title>public.users</title>
<polygon fill="#efefef" stroke="transparent" points="266,-802.5 266,-837.5 519,-837.5 519,-802.5 266,-802.5"/>
<polygon fill="none" stroke="#000000" points="266,-802.5 266,-837.5 519,-837.5 519,-802.5 266,-802.5"/>
<text text-anchor="start" x="280.7091" y="-815.3" font-family="Arial Bold" font-size="18.00" fill="#000000">public.users</text>
<text text-anchor="start" x="376.7229" y="-815.3" font-family="Arial" font-size="14.00" fill="#000000">    </text>
<text text-anchor="start" x="410.9277" y="-815.3" font-family="Arial" font-size="14.00" fill="#666666">[BASE TABLE]</text>
<polygon fill="none" stroke="#000000" points="266,-772.5 266,-802.5 519,-802.5 519,-772.5 266,-772.5"/>
<text text-anchor="start" x="273" y="-783.9" font-family="Arial" font-size="14.00" fill="#000000">id </text>
<text text-anchor="start" x="287.7798" y="-783.9" font-family="Arial" font-size="14.00" fill="#666666">[bigint]</text>
<polygon fill="none" stroke="#000000" points="266,-742.5 266,-772.5 519,-772.5 519,-742.5 266,-742.5"/>
<text text-anchor="start" x="273" y="-753.9" font-family="Arial" font-size="14.00" fill="#000000">name </text>
<text text-anchor="start" x="311.899" y="-753.9" font-family="Arial" font-size="14.00" fill="#666666">[varchar(100)]</text>
<polygon fill="none" stroke="#000000" points="266,-712.5 266,-742.5 519,-742.5 519,-712.5 266,-712.5"/>
<text text-anchor="start" x="273" y="-723.9" font-family="Arial" font-size="14.00" fill="#000000">code </text>
<text text-anchor="start" x="307.2384" y="-723.9" font-family="Arial" font-size="14.00" fill="#666666">[varchar(100)]</text>
<polygon fill="none" stroke="#000000" points="266,-682.5 266,-712.5 519,-712.5 519,-682.5 266,-682.5"/>
<text text-anchor="start" x="273" y="-693.9" font-family="Arial" font-size="14.00" fill="#000000">email </text>
<text text-anchor="start" x="310.3296" y="-693.9" font-family="Arial" font-size="14.00" fill="#666666">[varchar(150)]</text>
<polygon fill="none" stroke="#000000" points="266,-652.5 266,-682.5 519,-682.5 519,-652.5 266,-652.5"/>
<text text-anchor="start" x="273" y="-663.9" font-family="Arial" font-size="14.00" fill="#000000">phone </text>
<text text-anchor="start" x="315.8036" y="-663.9" font-family="Arial" font-size="14.00" fill="#666666">[varchar(50)]</text>
<polygon fill="none" stroke="#000000" points="266,-622.5 266,-652.5 519,-652.5 519,-622.5 266,-622.5"/>
<text text-anchor="start" x="273" y="-633.9" font-family="Arial" font-size="14.00" fill="#000000">password </text>
<text text-anchor="start" x="336.7882" y="-633.9" font-family="Arial" font-size="14.00" fill="#666666">[text]</text>
<polygon fill="none" stroke="#000000" points="266,-592.5 266,-622.5 519,-622.5 519,-592.5 266,-592.5"/>
<text text-anchor="start" x="273" y="-603.9" font-family="Arial" font-size="14.00" fill="#000000">role </text>
<text text-anchor="start" x="300.223" y="-603.9" font-family="Arial" font-size="14.00" fill="#666666">[varchar(20)]</text>
<polygon fill="none" stroke="#000000" points="266,-562.5 266,-592.5 519,-592.5 519,-562.5 266,-562.5"/>
<text text-anchor="start" x="273" y="-573.9" font-family="Arial" font-size="14.00" fill="#000000">branch_id </text>
<text text-anchor="start" x="338.3534" y="-573.9" font-family="Arial" font-size="14.00" fill="#666666">[bigint]</text>
<polygon fill="none" stroke="#000000" points="266,-532.5 266,-562.5 519,-562.5 519,-532.5 266,-532.5"/>
<text text-anchor="start" x="273" y="-543.9" font-family="Arial" font-size="14.00" fill="#000000">status </text>
<text text-anchor="start" x="314.237" y="-543.9" font-family="Arial" font-size="14.00" fill="#666666">[varchar(20)]</text>
<polygon fill="none" stroke="#000000" points="266,-502.5 266,-532.5 519,-532.5 519,-502.5 266,-502.5"/>
<text text-anchor="start" x="273" y="-513.9" font-family="Arial" font-size="14.00" fill="#000000">created_at </text>
<text text-anchor="start" x="343.028" y="-513.9" font-family="Arial" font-size="14.00" fill="#666666">[timestamp with time zone]</text>
<polygon fill="none" stroke="#000000" points="266,-472.5 266,-502.5 519,-502.5 519,-472.5 266,-472.5"/>
<text text-anchor="start" x="272.6915" y="-483.9" font-family="Arial" font-size="14.00" fill="#000000">updated_at </text>
<text text-anchor="start" x="346.6241" y="-483.9" font-family="Arial" font-size="14.00" fill="#666666">[timestamp with time zone]</text>
<polygon fill="none" stroke="#000000" stroke-width="3" points="264,-471.5 264,-839.5 520,-839.5 520,-471.5 264,-471.5"/>
</g>
<!-- public.branches -->
<g id="node3" class="node">
<title>public.branches</title>
<polygon fill="#efefef" stroke="transparent" points="251,-312.5 251,-347.5 534,-347.5 534,-312.5 251,-312.5"/>
<polygon fill="none" stroke="#000000" points="251,-312.5 251,-347.5 534,-347.5 534,-312.5 251,-312.5"/>
<text text-anchor="start" x="265.6998" y="-325.3" font-family="Arial Bold" font-size="18.00" fill="#000000">public.branches</text>
<text text-anchor="start" x="391.7322" y="-325.3" font-family="Arial" font-size="14.00" fill="#000000">    </text>
<text text-anchor="start" x="425.937" y="-325.3" font-family="Arial" font-size="14.00" fill="#666666">[BASE TABLE]</text>
<polygon fill="none" stroke="#000000" points="251,-282.5 251,-312.5 534,-312.5 534,-282.5 251,-282.5"/>
<text text-anchor="start" x="258" y="-293.9" font-family="Arial" font-size="14.00" fill="#000000">id    </text>
<text text-anchor="start" x="303.094" y="-293.9" font-family="Arial" font-size="14.00" fill="#666666">[bigint]</text>
<polygon fill="none" stroke="#000000" points="251,-252.5 251,-282.5 534,-282.5 534,-252.5 251,-252.5"/>
<text text-anchor="start" x="258" y="-263.9" font-family="Arial" font-size="14.00" fill="#000000">name    </text>
<text text-anchor="start" x="327.2132" y="-263.9" font-family="Arial" font-size="14.00" fill="#666666">[varchar(100)]</text>
<polygon fill="none" stroke="#000000" points="251,-222.5 251,-252.5 534,-252.5 534,-222.5 251,-222.5"/>
<text text-anchor="start" x="258" y="-233.9" font-family="Arial" font-size="14.00" fill="#000000">address    </text>
<text text-anchor="start" x="341.9958" y="-233.9" font-family="Arial" font-size="14.00" fill="#666666">[text]</text>
<polygon fill="none" stroke="#000000" points="251,-192.5 251,-222.5 534,-222.5 534,-192.5 251,-192.5"/>
<text text-anchor="start" x="258" y="-203.9" font-family="Arial" font-size="14.00" fill="#000000">lat    </text>
<text text-anchor="start" x="306.9846" y="-203.9" font-family="Arial" font-size="14.00" fill="#666666">[double precision]</text>
<polygon fill="none" stroke="#000000" points="251,-162.5 251,-192.5 534,-192.5 534,-162.5 251,-162.5"/>
<text text-anchor="start" x="258" y="-173.9" font-family="Arial" font-size="14.00" fill="#000000">lng    </text>
<text text-anchor="start" x="310.8766" y="-173.9" font-family="Arial" font-size="14.00" fill="#666666">[double precision]</text>
<polygon fill="none" stroke="#000000" points="251,-132.5 251,-162.5 534,-162.5 534,-132.5 251,-132.5"/>
<text text-anchor="start" x="258" y="-143.9" font-family="Arial" font-size="14.00" fill="#000000">radius    </text>
<text text-anchor="start" x="330.3198" y="-143.9" font-family="Arial" font-size="14.00" fill="#666666">[bigint]</text>
<polygon fill="none" stroke="#000000" points="251,-102.5 251,-132.5 534,-132.5 534,-102.5 251,-102.5"/>
<text text-anchor="start" x="258" y="-113.9" font-family="Arial" font-size="14.00" fill="#000000">status    </text>
<text text-anchor="start" x="329.5512" y="-113.9" font-family="Arial" font-size="14.00" fill="#666666">[varchar(20)]</text>
<polygon fill="none" stroke="#000000" points="251,-72.5 251,-102.5 534,-102.5 534,-72.5 251,-72.5"/>
<text text-anchor="start" x="258" y="-83.9" font-family="Arial" font-size="14.00" fill="#000000">created_at    </text>
<text text-anchor="start" x="358.3422" y="-83.9" font-family="Arial" font-size="14.00" fill="#666666">[timestamp with time zone]</text>
<polygon fill="none" stroke="#000000" points="251,-42.5 251,-72.5 534,-72.5 534,-42.5 251,-42.5"/>
<text text-anchor="start" x="257.5344" y="-53.9" font-family="Arial" font-size="14.00" fill="#000000">updated_at    </text>
<text text-anchor="start" x="361.7812" y="-53.9" font-family="Arial" font-size="14.00" fill="#666666">[timestamp with time zone]</text>
</g>
<!-- public.users&#45;&gt;public.branches -->
<g id="edge2" class="edge">
<title>public.users:branch_id&#45;&gt;public.branches:id</title>
<path fill="none" stroke="#000000" d="M255.6764,-576.839C140.6395,-561.8652 129.9065,-297.5 251,-297.5"/>
<polygon fill="#000000" stroke="#000000" points="256.0204,-576.8609 265.7124,-581.9908 261.0102,-577.1805 266,-577.5 266,-577.5 266,-577.5 261.0102,-577.1805 266.2876,-573.0092 256.0204,-576.8609 256.0204,-576.8609"/>
<text text-anchor="start" x="8.437" y="-587.5" font-family="Arial" font-size="10.00" fill="#000000">FOREIGN KEY (branch_id) REFERENCES branches(id)</text>
</g>
<!-- public.attendances -->
<g id="node2" class="node">
<title>public.attendances</title>
<polygon fill="#efefef" stroke="transparent" points="237,-1352.5 237,-1387.5 548,-1387.5 548,-1352.5 237,-1352.5"/>
<polygon fill="none" stroke="#000000" points="237,-1352.5 237,-1387.5 548,-1387.5 548,-1352.5 237,-1352.5"/>
<text text-anchor="start" x="253.6875" y="-1365.3" font-family="Arial Bold" font-size="18.00" fill="#000000">public.attendances</text>
<text text-anchor="start" x="403.7445" y="-1365.3" font-family="Arial" font-size="14.00" fill="#000000">    </text>
<text text-anchor="start" x="437.9493" y="-1365.3" font-family="Arial" font-size="14.00" fill="#666666">[BASE TABLE]</text>
<polygon fill="none" stroke="#000000" points="237,-1322.5 237,-1352.5 548,-1352.5 548,-1322.5 237,-1322.5"/>
<text text-anchor="start" x="244" y="-1333.9" font-family="Arial" font-size="14.00" fill="#000000">id    </text>
<text text-anchor="start" x="289.094" y="-1333.9" font-family="Arial" font-size="14.00" fill="#666666">[bigint]</text>
<polygon fill="none" stroke="#000000" points="237,-1292.5 237,-1322.5 548,-1322.5 548,-1292.5 237,-1292.5"/>
<text text-anchor="start" x="244" y="-1303.9" font-family="Arial" font-size="14.00" fill="#000000">user_id    </text>
<text text-anchor="start" x="324.1024" y="-1303.9" font-family="Arial" font-size="14.00" fill="#666666">[bigint]</text>
<polygon fill="none" stroke="#000000" points="237,-1262.5 237,-1292.5 548,-1292.5 548,-1262.5 237,-1262.5"/>
<text text-anchor="start" x="244" y="-1273.9" font-family="Arial" font-size="14.00" fill="#000000">branch_id    </text>
<text text-anchor="start" x="339.6676" y="-1273.9" font-family="Arial" font-size="14.00" fill="#666666">[bigint]</text>
<polygon fill="none" stroke="#000000" points="237,-1232.5 237,-1262.5 548,-1262.5 548,-1232.5 237,-1232.5"/>
<text text-anchor="start" x="244" y="-1243.9" font-family="Arial" font-size="14.00" fill="#000000">check_in_time    </text>
<text text-anchor="start" x="367.6648" y="-1243.9" font-family="Arial" font-size="14.00" fill="#666666">[timestamp with time zone]</text>
<polygon fill="none" stroke="#000000" points="237,-1202.5 237,-1232.5 548,-1232.5 548,-1202.5 237,-1202.5"/>
<text text-anchor="start" x="243.5421" y="-1213.9" font-family="Arial" font-size="14.00" fill="#000000">check_out_time    </text>
<text text-anchor="start" x="375.7735" y="-1213.9" font-family="Arial" font-size="14.00" fill="#666666">[timestamp with time zone]</text>
<polygon fill="none" stroke="#000000" points="237,-1172.5 237,-1202.5 548,-1202.5 548,-1172.5 237,-1172.5"/>
<text text-anchor="start" x="244" y="-1183.9" font-family="Arial" font-size="14.00" fill="#000000">check_in_lat    </text>
<text text-anchor="start" x="356.0042" y="-1183.9" font-family="Arial" font-size="14.00" fill="#666666">[double precision]</text>
<polygon fill="none" stroke="#000000" points="237,-1142.5 237,-1172.5 548,-1172.5 548,-1142.5 237,-1142.5"/>
<text text-anchor="start" x="244" y="-1153.9" font-family="Arial" font-size="14.00" fill="#000000">check_in_lng    </text>
<text text-anchor="start" x="359.8962" y="-1153.9" font-family="Arial" font-size="14.00" fill="#666666">[double precision]</text>
<polygon fill="none" stroke="#000000" points="237,-1112.5 237,-1142.5 548,-1142.5 548,-1112.5 237,-1112.5"/>
<text text-anchor="start" x="244" y="-1123.9" font-family="Arial" font-size="14.00" fill="#000000">check_out_lat    </text>
<text text-anchor="start" x="364.5708" y="-1123.9" font-family="Arial" font-size="14.00" fill="#666666">[double precision]</text>
<polygon fill="none" stroke="#000000" points="237,-1082.5 237,-1112.5 548,-1112.5 548,-1082.5 237,-1082.5"/>
<text text-anchor="start" x="244" y="-1093.9" font-family="Arial" font-size="14.00" fill="#000000">check_out_lng    </text>
<text text-anchor="start" x="368.4628" y="-1093.9" font-family="Arial" font-size="14.00" fill="#666666">[double precision]</text>
<polygon fill="none" stroke="#000000" points="237,-1052.5 237,-1082.5 548,-1082.5 548,-1052.5 237,-1052.5"/>
<text text-anchor="start" x="244" y="-1063.9" font-family="Arial" font-size="14.00" fill="#000000">wifi_bssid    </text>
<text text-anchor="start" x="338.8696" y="-1063.9" font-family="Arial" font-size="14.00" fill="#666666">[varchar(100)]</text>
<polygon fill="none" stroke="#000000" points="237,-1022.5 237,-1052.5 548,-1052.5 548,-1022.5 237,-1022.5"/>
<text text-anchor="start" x="244" y="-1033.9" font-family="Arial" font-size="14.00" fill="#000000">device_id    </text>
<text text-anchor="start" x="337.331" y="-1033.9" font-family="Arial" font-size="14.00" fill="#666666">[varchar(100)]</text>
<polygon fill="none" stroke="#000000" points="237,-992.5 237,-1022.5 548,-1022.5 548,-992.5 237,-992.5"/>
<text text-anchor="start" x="244" y="-1003.9" font-family="Arial" font-size="14.00" fill="#000000">status    </text>
<text text-anchor="start" x="315.5512" y="-1003.9" font-family="Arial" font-size="14.00" fill="#666666">[varchar(20)]</text>
<polygon fill="none" stroke="#000000" points="237,-962.5 237,-992.5 548,-992.5 548,-962.5 237,-962.5"/>
<text text-anchor="start" x="244" y="-973.9" font-family="Arial" font-size="14.00" fill="#000000">created_at    </text>
<text text-anchor="start" x="344.3422" y="-973.9" font-family="Arial" font-size="14.00" fill="#666666">[timestamp with time zone]</text>
</g>
<!-- public.attendances&#45;&gt;public.users -->
<g id="edge1" class="edge">
<title>public.attendances:user_id&#45;&gt;public.users:id</title>
<path fill="none" stroke="#000000" d="M226.8852,-1306.0991C123.1002,-1276.4922 153.7686,-787.5 266,-787.5"/>
<polygon fill="#000000" stroke="#000000" points="227.0945,-1306.128 236.3826,-1311.9575 232.0473,-1306.814 237,-1307.5 237,-1307.5 237,-1307.5 232.0473,-1306.814 237.6174,-1303.0425 227.0945,-1306.128 227.0945,-1306.128"/>
<text text-anchor="start" x="7.3345" y="-1317.5" font-family="Arial" font-size="10.00" fill="#000000">FOREIGN KEY (user_id) REFERENCES users(id)</text>
</g>
</g>
</svg>
