<?xml version="1.0" encoding="UTF-8" standalone="no"?>
<!DOCTYPE svg PUBLIC "-//W3C//DTD SVG 1.1//EN"
 "http://www.w3.org/Graphics/SVG/1.1/DTD/svg11.dtd">
<!-- Generated by graphviz version 2.40.1 (20161225.0304)
 -->
<!-- Title: public.branch_wifis Pages: 1 -->
<svg width="612pt" height="772pt"
 viewBox="0.00 0.00 611.50 772.00" xmlns="http://www.w3.org/2000/svg" xmlns:xlink="http://www.w3.org/1999/xlink">
<g id="graph0" class="graph" transform="scale(1 1) rotate(0) translate(4 768)">
<title>public.branch_wifis</title>
<polygon fill="#ffffff" stroke="transparent" points="-4,4 -4,-768 607.5,-768 607.5,4 -4,4"/>
<!-- public.branch_wifis -->
<g id="node1" class="node">
<title>public.branch_wifis</title>
<polygon fill="#efefef" stroke="transparent" points="265,-682.5 265,-717.5 558,-717.5 558,-682.5 265,-682.5"/>
<polygon fill="none" stroke="#000000" points="265,-682.5 265,-717.5 558,-717.5 558,-682.5 265,-682.5"/>
<text text-anchor="start" x="271.7074" y="-695.3" font-family="Arial Bold" font-size="18.00" fill="#000000">public.branch_wifis</text>
<text text-anchor="start" x="423.7246" y="-695.3" font-family="Arial" font-size="14.00" fill="#000000">    </text>
<text text-anchor="start" x="457.9294" y="-695.3" font-family="Arial" font-size="14.00" fill="#666666">[BASE TABLE]</text>
<polygon fill="none" stroke="#000000" points="265,-652.5 265,-682.5 558,-682.5 558,-652.5 265,-652.5"/>
<text text-anchor="start" x="272" y="-663.9" font-family="Arial" font-size="14.00" fill="#000000">id </text>
<text text-anchor="start" x="286.7798" y="-663.9" font-family="Arial" font-size="14.00" fill="#666666">[bigint]</text>
<polygon fill="none" stroke="#000000" points="265,-622.5 265,-652.5 558,-652.5 558,-622.5 265,-622.5"/>
<text text-anchor="start" x="272" y="-633.9" font-family="Arial" font-size="14.00" fill="#000000">code </text>
<text text-anchor="start" x="306.2384" y="-633.9" font-family="Arial" font-size="14.00" fill="#666666">[varchar(100)]</text>
<polygon fill="none" stroke="#000000" points="265,-592.5 265,-622.5 558,-622.5 558,-592.5 265,-592.5"/>
<text text-anchor="start" x="272" y="-603.9" font-family="Arial" font-size="14.00" fill="#000000">name </text>
<text text-anchor="start" x="310.899" y="-603.9" font-family="Arial" font-size="14.00" fill="#666666">[varchar(100)]</text>
<polygon fill="none" stroke="#000000" points="265,-562.5 265,-592.5 558,-592.5 558,-562.5 265,-562.5"/>
<text text-anchor="start" x="272" y="-573.9" font-family="Arial" font-size="14.00" fill="#000000">branch_id </text>
<text text-anchor="start" x="337.3534" y="-573.9" font-family="Arial" font-size="14.00" fill="#666666">[bigint]</text>
<polygon fill="none" stroke="#000000" points="265,-532.5 265,-562.5 558,-562.5 558,-532.5 265,-532.5"/>
<text text-anchor="start" x="272" y="-543.9" font-family="Arial" font-size="14.00" fill="#000000">ssid </text>
<text text-anchor="start" x="300.7798" y="-543.9" font-family="Arial" font-size="14.00" fill="#666666">[varchar(100)]</text>
<polygon fill="none" stroke="#000000" points="265,-502.5 265,-532.5 558,-532.5 558,-502.5 265,-502.5"/>
<text text-anchor="start" x="272" y="-513.9" font-family="Arial" font-size="14.00" fill="#000000">bssid </text>
<text text-anchor="start" x="308.5624" y="-513.9" font-family="Arial" font-size="14.00" fill="#666666">[varchar(100)]</text>
<polygon fill="none" stroke="#000000" points="265,-472.5 265,-502.5 558,-502.5 558,-472.5 265,-472.5"/>
<text text-anchor="start" x="272" y="-483.9" font-family="Arial" font-size="14.00" fill="#000000">created_at </text>
<text text-anchor="start" x="342.028" y="-483.9" font-family="Arial" font-size="14.00" fill="#666666">[timestamp with time zone]</text>
<polygon fill="none" stroke="#000000" stroke-width="3" points="263,-471.5 263,-719.5 559,-719.5 559,-471.5 263,-471.5"/>
</g>
<!-- public.branches -->
<g id="node2" class="node">
<title>public.branches</title>
<polygon fill="#efefef" stroke="transparent" points="270,-312.5 270,-347.5 553,-347.5 553,-312.5 270,-312.5"/>
<polygon fill="none" stroke="#000000" points="270,-312.5 270,-347.5 553,-347.5 553,-312.5 270,-312.5"/>
<text text-anchor="start" x="284.6998" y="-325.3" font-family="Arial Bold" font-size="18.00" fill="#000000">public.branches</text>
<text text-anchor="start" x="410.7322" y="-325.3" font-family="Arial" font-size="14.00" fill="#000000">    </text>
<text text-anchor="start" x="444.937" y="-325.3" font-family="Arial" font-size="14.00" fill="#666666">[BASE TABLE]</text>
<polygon fill="none" stroke="#000000" points="270,-282.5 270,-312.5 553,-312.5 553,-282.5 270,-282.5"/>
<text text-anchor="start" x="277" y="-293.9" font-family="Arial" font-size="14.00" fill="#000000">id    </text>
<text text-anchor="start" x="322.094" y="-293.9" font-family="Arial" font-size="14.00" fill="#666666">[bigint]</text>
<polygon fill="none" stroke="#000000" points="270,-252.5 270,-282.5 553,-282.5 553,-252.5 270,-252.5"/>
<text text-anchor="start" x="277" y="-263.9" font-family="Arial" font-size="14.00" fill="#000000">name    </text>
<text text-anchor="start" x="346.2132" y="-263.9" font-family="Arial" font-size="14.00" fill="#666666">[varchar(100)]</text>
<polygon fill="none" stroke="#000000" points="270,-222.5 270,-252.5 553,-252.5 553,-222.5 270,-222.5"/>
<text text-anchor="start" x="277" y="-233.9" font-family="Arial" font-size="14.00" fill="#000000">address    </text>
<text text-anchor="start" x="360.9958" y="-233.9" font-family="Arial" font-size="14.00" fill="#666666">[text]</text>
<polygon fill="none" stroke="#000000" points="270,-192.5 270,-222.5 553,-222.5 553,-192.5 270,-192.5"/>
<text text-anchor="start" x="277" y="-203.9" font-family="Arial" font-size="14.00" fill="#000000">lat    </text>
<text text-anchor="start" x="325.9846" y="-203.9" font-family="Arial" font-size="14.00" fill="#666666">[double precision]</text>
<polygon fill="none" stroke="#000000" points="270,-162.5 270,-192.5 553,-192.5 553,-162.5 270,-162.5"/>
<text text-anchor="start" x="277" y="-173.9" font-family="Arial" font-size="14.00" fill="#000000">lng    </text>
<text text-anchor="start" x="329.8766" y="-173.9" font-family="Arial" font-size="14.00" fill="#666666">[double precision]</text>
<polygon fill="none" stroke="#000000" points="270,-132.5 270,-162.5 553,-162.5 553,-132.5 270,-132.5"/>
<text text-anchor="start" x="277" y="-143.9" font-family="Arial" font-size="14.00" fill="#000000">radius    </text>
<text text-anchor="start" x="349.3198" y="-143.9" font-family="Arial" font-size="14.00" fill="#666666">[bigint]</text>
<polygon fill="none" stroke="#000000" points="270,-102.5 270,-132.5 553,-132.5 553,-102.5 270,-102.5"/>
<text text-anchor="start" x="277" y="-113.9" font-family="Arial" font-size="14.00" fill="#000000">status    </text>
<text text-anchor="start" x="348.5512" y="-113.9" font-family="Arial" font-size="14.00" fill="#666666">[varchar(20)]</text>
<polygon fill="none" stroke="#000000" points="270,-72.5 270,-102.5 553,-102.5 553,-72.5 270,-72.5"/>
<text text-anchor="start" x="277" y="-83.9" font-family="Arial" font-size="14.00" fill="#000000">created_at    </text>
<text text-anchor="start" x="377.3422" y="-83.9" font-family="Arial" font-size="14.00" fill="#666666">[timestamp with time zone]</text>
<polygon fill="none" stroke="#000000" points="270,-42.5 270,-72.5 553,-72.5 553,-42.5 270,-42.5"/>
<text text-anchor="start" x="276.5344" y="-53.9" font-family="Arial" font-size="14.00" fill="#000000">updated_at    </text>
<text text-anchor="start" x="380.7812" y="-53.9" font-family="Arial" font-size="14.00" fill="#666666">[timestamp with time zone]</text>
</g>
<!-- public.branch_wifis&#45;&gt;public.branches -->
<g id="edge1" class="edge">
<title>public.branch_wifis:branch_id&#45;&gt;public.branches:id</title>
<path fill="none" stroke="#000000" d="M255.0707,-574.9069C203.5179,-546.6795 211.2927,-297.5 270,-297.5"/>
<polygon fill="#000000" stroke="#000000" points="255.3245,-574.9731 263.8629,-581.854 260.1622,-576.2366 265,-577.5 265,-577.5 265,-577.5 260.1622,-576.2366 266.1371,-573.146 255.3245,-574.9731 255.3245,-574.9731"/>
<text text-anchor="start" x="7.437" y="-587.5" font-family="Arial" font-size="10.00" fill="#000000">FOREIGN KEY (branch_id) REFERENCES branches(id)</text>
</g>
</g>
</svg>
