<?xml version="1.0" encoding="UTF-8" standalone="no"?>
<!DOCTYPE svg PUBLIC "-//W3C//DTD SVG 1.1//EN"
 "http://www.w3.org/Graphics/SVG/1.1/DTD/svg11.dtd">
<!-- Generated by graphviz version 2.40.1 (20161225.0304)
 -->
<!-- Title: public.attendances Pages: 1 -->
<svg width="801pt" height="1012pt"
 viewBox="0.00 0.00 801.00 1012.00" xmlns="http://www.w3.org/2000/svg" xmlns:xlink="http://www.w3.org/1999/xlink">
<g id="graph0" class="graph" transform="scale(1 1) rotate(0) translate(4 1008)">
<title>public.attendances</title>
<polygon fill="#ffffff" stroke="transparent" points="-4,4 -4,-1008 797,-1008 797,4 -4,4"/>
<!-- public.attendances -->
<g id="node1" class="node">
<title>public.attendances</title>
<polygon fill="#efefef" stroke="transparent" points="237,-922.5 237,-957.5 528,-957.5 528,-922.5 237,-922.5"/>
<polygon fill="none" stroke="#000000" points="237,-922.5 237,-957.5 528,-957.5 528,-922.5 237,-922.5"/>
<text text-anchor="start" x="243.6875" y="-935.3" font-family="Arial Bold" font-size="18.00" fill="#000000">public.attendances</text>
<text text-anchor="start" x="393.7445" y="-935.3" font-family="Arial" font-size="14.00" fill="#000000">    </text>
<text text-anchor="start" x="427.9493" y="-935.3" font-family="Arial" font-size="14.00" fill="#666666">[BASE TABLE]</text>
<polygon fill="none" stroke="#000000" points="237,-892.5 237,-922.5 528,-922.5 528,-892.5 237,-892.5"/>
<text text-anchor="start" x="244" y="-903.9" font-family="Arial" font-size="14.00" fill="#000000">id </text>
<text text-anchor="start" x="258.7798" y="-903.9" font-family="Arial" font-size="14.00" fill="#666666">[bigint]</text>
<polygon fill="none" stroke="#000000" points="237,-862.5 237,-892.5 528,-892.5 528,-862.5 237,-862.5"/>
<text text-anchor="start" x="244" y="-873.9" font-family="Arial" font-size="14.00" fill="#000000">user_id </text>
<text text-anchor="start" x="293.7882" y="-873.9" font-family="Arial" font-size="14.00" fill="#666666">[bigint]</text>
<polygon fill="none" stroke="#000000" points="237,-832.5 237,-862.5 528,-862.5 528,-832.5 237,-832.5"/>
<text text-anchor="start" x="244" y="-843.9" font-family="Arial" font-size="14.00" fill="#000000">branch_id </text>
<text text-anchor="start" x="309.3534" y="-843.9" font-family="Arial" font-size="14.00" fill="#666666">[bigint]</text>
<polygon fill="none" stroke="#000000" points="237,-802.5 237,-832.5 528,-832.5 528,-802.5 237,-802.5"/>
<text text-anchor="start" x="244" y="-813.9" font-family="Arial" font-size="14.00" fill="#000000">check_in_time </text>
<text text-anchor="start" x="337.3506" y="-813.9" font-family="Arial" font-size="14.00" fill="#666666">[timestamp with time zone]</text>
<polygon fill="none" stroke="#000000" points="237,-772.5 237,-802.5 528,-802.5 528,-772.5 237,-772.5"/>
<text text-anchor="start" x="244" y="-783.9" font-family="Arial" font-size="14.00" fill="#000000">check_out_time </text>
<text text-anchor="start" x="345.9172" y="-783.9" font-family="Arial" font-size="14.00" fill="#666666">[timestamp with time zone]</text>
<polygon fill="none" stroke="#000000" points="237,-742.5 237,-772.5 528,-772.5 528,-742.5 237,-742.5"/>
<text text-anchor="start" x="244" y="-753.9" font-family="Arial" font-size="14.00" fill="#000000">check_in_lat </text>
<text text-anchor="start" x="325.69" y="-753.9" font-family="Arial" font-size="14.00" fill="#666666">[double precision]</text>
<polygon fill="none" stroke="#000000" points="237,-712.5 237,-742.5 528,-742.5 528,-712.5 237,-712.5"/>
<text text-anchor="start" x="244" y="-723.9" font-family="Arial" font-size="14.00" fill="#000000">check_in_lng </text>
<text text-anchor="start" x="329.582" y="-723.9" font-family="Arial" font-size="14.00" fill="#666666">[double precision]</text>
<polygon fill="none" stroke="#000000" points="237,-682.5 237,-712.5 528,-712.5 528,-682.5 237,-682.5"/>
<text text-anchor="start" x="244" y="-693.9" font-family="Arial" font-size="14.00" fill="#000000">check_out_lat </text>
<text text-anchor="start" x="334.2566" y="-693.9" font-family="Arial" font-size="14.00" fill="#666666">[double precision]</text>
<polygon fill="none" stroke="#000000" points="237,-652.5 237,-682.5 528,-682.5 528,-652.5 237,-652.5"/>
<text text-anchor="start" x="244" y="-663.9" font-family="Arial" font-size="14.00" fill="#000000">check_out_lng </text>
<text text-anchor="start" x="338.1486" y="-663.9" font-family="Arial" font-size="14.00" fill="#666666">[double precision]</text>
<polygon fill="none" stroke="#000000" points="237,-622.5 237,-652.5 528,-652.5 528,-622.5 237,-622.5"/>
<text text-anchor="start" x="244" y="-633.9" font-family="Arial" font-size="14.00" fill="#000000">wifi_bssid </text>
<text text-anchor="start" x="308.5554" y="-633.9" font-family="Arial" font-size="14.00" fill="#666666">[varchar(100)]</text>
<polygon fill="none" stroke="#000000" points="237,-592.5 237,-622.5 528,-622.5 528,-592.5 237,-592.5"/>
<text text-anchor="start" x="244" y="-603.9" font-family="Arial" font-size="14.00" fill="#000000">device_id </text>
<text text-anchor="start" x="307.0168" y="-603.9" font-family="Arial" font-size="14.00" fill="#666666">[varchar(100)]</text>
<polygon fill="none" stroke="#000000" points="237,-562.5 237,-592.5 528,-592.5 528,-562.5 237,-562.5"/>
<text text-anchor="start" x="244" y="-573.9" font-family="Arial" font-size="14.00" fill="#000000">status </text>
<text text-anchor="start" x="285.237" y="-573.9" font-family="Arial" font-size="14.00" fill="#666666">[varchar(20)]</text>
<polygon fill="none" stroke="#000000" points="237,-532.5 237,-562.5 528,-562.5 528,-532.5 237,-532.5"/>
<text text-anchor="start" x="244" y="-543.9" font-family="Arial" font-size="14.00" fill="#000000">created_at </text>
<text text-anchor="start" x="314.028" y="-543.9" font-family="Arial" font-size="14.00" fill="#666666">[timestamp with time zone]</text>
<polygon fill="none" stroke="#000000" stroke-width="3" points="235,-531.5 235,-959.5 529,-959.5 529,-531.5 235,-531.5"/>
</g>
<!-- public.users -->
<g id="node2" class="node">
<title>public.users</title>
<polygon fill="#efefef" stroke="transparent" points="48,-372.5 48,-407.5 331,-407.5 331,-372.5 48,-372.5"/>
<polygon fill="none" stroke="#000000" points="48,-372.5 48,-407.5 331,-407.5 331,-372.5 48,-372.5"/>
<text text-anchor="start" x="77.7091" y="-385.3" font-family="Arial Bold" font-size="18.00" fill="#000000">public.users</text>
<text text-anchor="start" x="173.7229" y="-385.3" font-family="Arial" font-size="14.00" fill="#000000">    </text>
<text text-anchor="start" x="207.9277" y="-385.3" font-family="Arial" font-size="14.00" fill="#666666">[BASE TABLE]</text>
<polygon fill="none" stroke="#000000" points="48,-342.5 48,-372.5 331,-372.5 331,-342.5 48,-342.5"/>
<text text-anchor="start" x="55" y="-353.9" font-family="Arial" font-size="14.00" fill="#000000">id    </text>
<text text-anchor="start" x="100.094" y="-353.9" font-family="Arial" font-size="14.00" fill="#666666">[bigint]</text>
<polygon fill="none" stroke="#000000" points="48,-312.5 48,-342.5 331,-342.5 331,-312.5 48,-312.5"/>
<text text-anchor="start" x="55" y="-323.9" font-family="Arial" font-size="14.00" fill="#000000">name    </text>
<text text-anchor="start" x="124.2132" y="-323.9" font-family="Arial" font-size="14.00" fill="#666666">[varchar(100)]</text>
<polygon fill="none" stroke="#000000" points="48,-282.5 48,-312.5 331,-312.5 331,-282.5 48,-282.5"/>
<text text-anchor="start" x="55" y="-293.9" font-family="Arial" font-size="14.00" fill="#000000">code    </text>
<text text-anchor="start" x="119.5526" y="-293.9" font-family="Arial" font-size="14.00" fill="#666666">[varchar(100)]</text>
<polygon fill="none" stroke="#000000" points="48,-252.5 48,-282.5 331,-282.5 331,-252.5 48,-252.5"/>
<text text-anchor="start" x="55" y="-263.9" font-family="Arial" font-size="14.00" fill="#000000">email    </text>
<text text-anchor="start" x="122.6438" y="-263.9" font-family="Arial" font-size="14.00" fill="#666666">[varchar(150)]</text>
<polygon fill="none" stroke="#000000" points="48,-222.5 48,-252.5 331,-252.5 331,-222.5 48,-222.5"/>
<text text-anchor="start" x="55" y="-233.9" font-family="Arial" font-size="14.00" fill="#000000">phone    </text>
<text text-anchor="start" x="128.1178" y="-233.9" font-family="Arial" font-size="14.00" fill="#666666">[varchar(50)]</text>
<polygon fill="none" stroke="#000000" points="48,-192.5 48,-222.5 331,-222.5 331,-192.5 48,-192.5"/>
<text text-anchor="start" x="55" y="-203.9" font-family="Arial" font-size="14.00" fill="#000000">password    </text>
<text text-anchor="start" x="149.1024" y="-203.9" font-family="Arial" font-size="14.00" fill="#666666">[text]</text>
<polygon fill="none" stroke="#000000" points="48,-162.5 48,-192.5 331,-192.5 331,-162.5 48,-162.5"/>
<text text-anchor="start" x="55" y="-173.9" font-family="Arial" font-size="14.00" fill="#000000">role    </text>
<text text-anchor="start" x="112.5372" y="-173.9" font-family="Arial" font-size="14.00" fill="#666666">[varchar(20)]</text>
<polygon fill="none" stroke="#000000" points="48,-132.5 48,-162.5 331,-162.5 331,-132.5 48,-132.5"/>
<text text-anchor="start" x="55" y="-143.9" font-family="Arial" font-size="14.00" fill="#000000">branch_id    </text>
<text text-anchor="start" x="150.6676" y="-143.9" font-family="Arial" font-size="14.00" fill="#666666">[bigint]</text>
<polygon fill="none" stroke="#000000" points="48,-102.5 48,-132.5 331,-132.5 331,-102.5 48,-102.5"/>
<text text-anchor="start" x="55" y="-113.9" font-family="Arial" font-size="14.00" fill="#000000">status    </text>
<text text-anchor="start" x="126.5512" y="-113.9" font-family="Arial" font-size="14.00" fill="#666666">[varchar(20)]</text>
<polygon fill="none" stroke="#000000" points="48,-72.5 48,-102.5 331,-102.5 331,-72.5 48,-72.5"/>
<text text-anchor="start" x="55" y="-83.9" font-family="Arial" font-size="14.00" fill="#000000">created_at    </text>
<text text-anchor="start" x="155.3422" y="-83.9" font-family="Arial" font-size="14.00" fill="#666666">[timestamp with time zone]</text>
<polygon fill="none" stroke="#000000" points="48,-42.5 48,-72.5 331,-72.5 331,-42.5 48,-42.5"/>
<text text-anchor="start" x="54.5344" y="-53.9" font-family="Arial" font-size="14.00" fill="#000000">updated_at    </text>
<text text-anchor="start" x="158.7812" y="-53.9" font-family="Arial" font-size="14.00" fill="#666666">[timestamp with time zone]</text>
</g>
<!-- public.attendances&#45;&gt;public.users -->
<g id="edge1" class="edge">
<title>public.attendances:user_id&#45;&gt;public.users:id</title>
<path fill="none" stroke="#000000" d="M226.6342,-877.1908C66.5385,-867.3923 140.659,-627.0612 237,-487 262.3534,-450.141 305.6466,-487.859 331,-451 354.5505,-416.7621 372.5556,-357.5 331,-357.5"/>
<polygon fill="#000000" stroke="#000000" points="227.0044,-877.2017 236.8658,-881.998 232.0022,-877.3509 237,-877.5 237,-877.5 237,-877.5 232.0022,-877.3509 237.1342,-873.002 227.0044,-877.2017 227.0044,-877.2017"/>
<text text-anchor="start" x="7.3345" y="-887.5" font-family="Arial" font-size="10.00" fill="#000000">FOREIGN KEY (user_id) REFERENCES users(id)</text>
</g>
<!-- public.branches -->
<g id="node3" class="node">
<title>public.branches</title>
<polygon fill="#efefef" stroke="transparent" points="435,-342.5 435,-377.5 718,-377.5 718,-342.5 435,-342.5"/>
<polygon fill="none" stroke="#000000" points="435,-342.5 435,-377.5 718,-377.5 718,-342.5 435,-342.5"/>
<text text-anchor="start" x="449.6998" y="-355.3" font-family="Arial Bold" font-size="18.00" fill="#000000">public.branches</text>
<text text-anchor="start" x="575.7322" y="-355.3" font-family="Arial" font-size="14.00" fill="#000000">    </text>
<text text-anchor="start" x="609.937" y="-355.3" font-family="Arial" font-size="14.00" fill="#666666">[BASE TABLE]</text>
<polygon fill="none" stroke="#000000" points="435,-312.5 435,-342.5 718,-342.5 718,-312.5 435,-312.5"/>
<text text-anchor="start" x="442" y="-323.9" font-family="Arial" font-size="14.00" fill="#000000">id    </text>
<text text-anchor="start" x="487.094" y="-323.9" font-family="Arial" font-size="14.00" fill="#666666">[bigint]</text>
<polygon fill="none" stroke="#000000" points="435,-282.5 435,-312.5 718,-312.5 718,-282.5 435,-282.5"/>
<text text-anchor="start" x="442" y="-293.9" font-family="Arial" font-size="14.00" fill="#000000">name    </text>
<text text-anchor="start" x="511.2132" y="-293.9" font-family="Arial" font-size="14.00" fill="#666666">[varchar(100)]</text>
<polygon fill="none" stroke="#000000" points="435,-252.5 435,-282.5 718,-282.5 718,-252.5 435,-252.5"/>
<text text-anchor="start" x="442" y="-263.9" font-family="Arial" font-size="14.00" fill="#000000">address    </text>
<text text-anchor="start" x="525.9958" y="-263.9" font-family="Arial" font-size="14.00" fill="#666666">[text]</text>
<polygon fill="none" stroke="#000000" points="435,-222.5 435,-252.5 718,-252.5 718,-222.5 435,-222.5"/>
<text text-anchor="start" x="442" y="-233.9" font-family="Arial" font-size="14.00" fill="#000000">lat    </text>
<text text-anchor="start" x="490.9846" y="-233.9" font-family="Arial" font-size="14.00" fill="#666666">[double precision]</text>
<polygon fill="none" stroke="#000000" points="435,-192.5 435,-222.5 718,-222.5 718,-192.5 435,-192.5"/>
<text text-anchor="start" x="442" y="-203.9" font-family="Arial" font-size="14.00" fill="#000000">lng    </text>
<text text-anchor="start" x="494.8766" y="-203.9" font-family="Arial" font-size="14.00" fill="#666666">[double precision]</text>
<polygon fill="none" stroke="#000000" points="435,-162.5 435,-192.5 718,-192.5 718,-162.5 435,-162.5"/>
<text text-anchor="start" x="442" y="-173.9" font-family="Arial" font-size="14.00" fill="#000000">radius    </text>
<text text-anchor="start" x="514.3198" y="-173.9" font-family="Arial" font-size="14.00" fill="#666666">[bigint]</text>
<polygon fill="none" stroke="#000000" points="435,-132.5 435,-162.5 718,-162.5 718,-132.5 435,-132.5"/>
<text text-anchor="start" x="442" y="-143.9" font-family="Arial" font-size="14.00" fill="#000000">status    </text>
<text text-anchor="start" x="513.5512" y="-143.9" font-family="Arial" font-size="14.00" fill="#666666">[varchar(20)]</text>
<polygon fill="none" stroke="#000000" points="435,-102.5 435,-132.5 718,-132.5 718,-102.5 435,-102.5"/>
<text text-anchor="start" x="442" y="-113.9" font-family="Arial" font-size="14.00" fill="#000000">created_at    </text>
<text text-anchor="start" x="542.3422" y="-113.9" font-family="Arial" font-size="14.00" fill="#666666">[timestamp with time zone]</text>
<polygon fill="none" stroke="#000000" points="435,-72.5 435,-102.5 718,-102.5 718,-72.5 435,-72.5"/>
<text text-anchor="start" x="441.5344" y="-83.9" font-family="Arial" font-size="14.00" fill="#000000">updated_at    </text>
<text text-anchor="start" x="545.7812" y="-83.9" font-family="Arial" font-size="14.00" fill="#666666">[timestamp with time zone]</text>
</g>
<!-- public.attendances&#45;&gt;public.branches -->
<g id="edge2" class="edge">
<title>public.attendances:branch_id&#45;&gt;public.branches:id</title>
<path fill="none" stroke="#000000" d="M538.4255,-847.1732C684.3346,-837.7386 599.8809,-626.1548 528,-487 504.739,-441.9688 458.261,-466.0312 435,-421 415.9285,-384.0793 393.4444,-327.5 435,-327.5"/>
<polygon fill="#000000" stroke="#000000" points="537.9951,-847.1866 527.859,-843.0022 532.9975,-847.3433 528,-847.5 528,-847.5 528,-847.5 532.9975,-847.3433 528.141,-851.9978 537.9951,-847.1866 537.9951,-847.1866"/>
<text text-anchor="start" x="535.437" y="-857.5" font-family="Arial" font-size="10.00" fill="#000000">FOREIGN KEY (branch_id) REFERENCES branches(id)</text>
</g>
</g>
</svg>
