<?xml version="1.0" encoding="UTF-8" standalone="no"?>
<!DOCTYPE svg PUBLIC "-//W3C//DTD SVG 1.1//EN"
 "http://www.w3.org/Graphics/SVG/1.1/DTD/svg11.dtd">
<!-- Generated by graphviz version 2.40.1 (20161225.0304)
 -->
<!-- Title: public.branches Pages: 1 -->
<svg width="1189pt" height="952pt"
 viewBox="0.00 0.00 1189.00 952.00" xmlns="http://www.w3.org/2000/svg" xmlns:xlink="http://www.w3.org/1999/xlink">
<g id="graph0" class="graph" transform="scale(1 1) rotate(0) translate(4 948)">
<title>public.branches</title>
<polygon fill="#ffffff" stroke="transparent" points="-4,4 -4,-948 1185,-948 1185,4 -4,4"/>
<!-- public.branches -->
<g id="node1" class="node">
<title>public.branches</title>
<polygon fill="#efefef" stroke="transparent" points="443.5,-315.5 443.5,-350.5 710.5,-350.5 710.5,-315.5 443.5,-315.5"/>
<polygon fill="none" stroke="#000000" points="443.5,-315.5 443.5,-350.5 710.5,-350.5 710.5,-315.5 443.5,-315.5"/>
<text text-anchor="start" x="450.1998" y="-328.3" font-family="Arial Bold" font-size="18.00" fill="#000000">public.branches</text>
<text text-anchor="start" x="576.2322" y="-328.3" font-family="Arial" font-size="14.00" fill="#000000">    </text>
<text text-anchor="start" x="610.437" y="-328.3" font-family="Arial" font-size="14.00" fill="#666666">[BASE TABLE]</text>
<polygon fill="none" stroke="#000000" points="443.5,-285.5 443.5,-315.5 710.5,-315.5 710.5,-285.5 443.5,-285.5"/>
<text text-anchor="start" x="450.5" y="-296.9" font-family="Arial" font-size="14.00" fill="#000000">id </text>
<text text-anchor="start" x="465.2798" y="-296.9" font-family="Arial" font-size="14.00" fill="#666666">[bigint]</text>
<polygon fill="none" stroke="#000000" points="443.5,-255.5 443.5,-285.5 710.5,-285.5 710.5,-255.5 443.5,-255.5"/>
<text text-anchor="start" x="450.5" y="-266.9" font-family="Arial" font-size="14.00" fill="#000000">name </text>
<text text-anchor="start" x="489.399" y="-266.9" font-family="Arial" font-size="14.00" fill="#666666">[varchar(100)]</text>
<polygon fill="none" stroke="#000000" points="443.5,-225.5 443.5,-255.5 710.5,-255.5 710.5,-225.5 443.5,-225.5"/>
<text text-anchor="start" x="450.5" y="-236.9" font-family="Arial" font-size="14.00" fill="#000000">address </text>
<text text-anchor="start" x="504.1816" y="-236.9" font-family="Arial" font-size="14.00" fill="#666666">[text]</text>
<polygon fill="none" stroke="#000000" points="443.5,-195.5 443.5,-225.5 710.5,-225.5 710.5,-195.5 443.5,-195.5"/>
<text text-anchor="start" x="450.5" y="-206.9" font-family="Arial" font-size="14.00" fill="#000000">lat </text>
<text text-anchor="start" x="469.1704" y="-206.9" font-family="Arial" font-size="14.00" fill="#666666">[double precision]</text>
<polygon fill="none" stroke="#000000" points="443.5,-165.5 443.5,-195.5 710.5,-195.5 710.5,-165.5 443.5,-165.5"/>
<text text-anchor="start" x="450.5" y="-176.9" font-family="Arial" font-size="14.00" fill="#000000">lng </text>
<text text-anchor="start" x="473.0624" y="-176.9" font-family="Arial" font-size="14.00" fill="#666666">[double precision]</text>
<polygon fill="none" stroke="#000000" points="443.5,-135.5 443.5,-165.5 710.5,-165.5 710.5,-135.5 443.5,-135.5"/>
<text text-anchor="start" x="450.5" y="-146.9" font-family="Arial" font-size="14.00" fill="#000000">radius </text>
<text text-anchor="start" x="492.5056" y="-146.9" font-family="Arial" font-size="14.00" fill="#666666">[bigint]</text>
<polygon fill="none" stroke="#000000" points="443.5,-105.5 443.5,-135.5 710.5,-135.5 710.5,-105.5 443.5,-105.5"/>
<text text-anchor="start" x="450.5" y="-116.9" font-family="Arial" font-size="14.00" fill="#000000">status </text>
<text text-anchor="start" x="491.737" y="-116.9" font-family="Arial" font-size="14.00" fill="#666666">[varchar(20)]</text>
<polygon fill="none" stroke="#000000" points="443.5,-75.5 443.5,-105.5 710.5,-105.5 710.5,-75.5 443.5,-75.5"/>
<text text-anchor="start" x="450.5" y="-86.9" font-family="Arial" font-size="14.00" fill="#000000">created_at </text>
<text text-anchor="start" x="520.528" y="-86.9" font-family="Arial" font-size="14.00" fill="#666666">[timestamp with time zone]</text>
<polygon fill="none" stroke="#000000" points="443.5,-45.5 443.5,-75.5 710.5,-75.5 710.5,-45.5 443.5,-45.5"/>
<text text-anchor="start" x="450.5" y="-56.9" font-family="Arial" font-size="14.00" fill="#000000">updated_at </text>
<text text-anchor="start" x="524.4326" y="-56.9" font-family="Arial" font-size="14.00" fill="#666666">[timestamp with time zone]</text>
<polygon fill="none" stroke="#000000" stroke-width="3" points="441.5,-44.5 441.5,-352.5 711.5,-352.5 711.5,-44.5 441.5,-44.5"/>
</g>
<!-- public.users -->
<g id="node2" class="node">
<title>public.users</title>
<polygon fill="#efefef" stroke="transparent" points="43.5,-835.5 43.5,-870.5 326.5,-870.5 326.5,-835.5 43.5,-835.5"/>
<polygon fill="none" stroke="#000000" points="43.5,-835.5 43.5,-870.5 326.5,-870.5 326.5,-835.5 43.5,-835.5"/>
<text text-anchor="start" x="73.2091" y="-848.3" font-family="Arial Bold" font-size="18.00" fill="#000000">public.users</text>
<text text-anchor="start" x="169.2229" y="-848.3" font-family="Arial" font-size="14.00" fill="#000000">    </text>
<text text-anchor="start" x="203.4277" y="-848.3" font-family="Arial" font-size="14.00" fill="#666666">[BASE TABLE]</text>
<polygon fill="none" stroke="#000000" points="43.5,-805.5 43.5,-835.5 326.5,-835.5 326.5,-805.5 43.5,-805.5"/>
<text text-anchor="start" x="50.5" y="-816.9" font-family="Arial" font-size="14.00" fill="#000000">id    </text>
<text text-anchor="start" x="95.594" y="-816.9" font-family="Arial" font-size="14.00" fill="#666666">[bigint]</text>
<polygon fill="none" stroke="#000000" points="43.5,-775.5 43.5,-805.5 326.5,-805.5 326.5,-775.5 43.5,-775.5"/>
<text text-anchor="start" x="50.5" y="-786.9" font-family="Arial" font-size="14.00" fill="#000000">name    </text>
<text text-anchor="start" x="119.7132" y="-786.9" font-family="Arial" font-size="14.00" fill="#666666">[varchar(100)]</text>
<polygon fill="none" stroke="#000000" points="43.5,-745.5 43.5,-775.5 326.5,-775.5 326.5,-745.5 43.5,-745.5"/>
<text text-anchor="start" x="50.5" y="-756.9" font-family="Arial" font-size="14.00" fill="#000000">code    </text>
<text text-anchor="start" x="115.0526" y="-756.9" font-family="Arial" font-size="14.00" fill="#666666">[varchar(100)]</text>
<polygon fill="none" stroke="#000000" points="43.5,-715.5 43.5,-745.5 326.5,-745.5 326.5,-715.5 43.5,-715.5"/>
<text text-anchor="start" x="50.5" y="-726.9" font-family="Arial" font-size="14.00" fill="#000000">email    </text>
<text text-anchor="start" x="118.1438" y="-726.9" font-family="Arial" font-size="14.00" fill="#666666">[varchar(150)]</text>
<polygon fill="none" stroke="#000000" points="43.5,-685.5 43.5,-715.5 326.5,-715.5 326.5,-685.5 43.5,-685.5"/>
<text text-anchor="start" x="50.5" y="-696.9" font-family="Arial" font-size="14.00" fill="#000000">phone    </text>
<text text-anchor="start" x="123.6178" y="-696.9" font-family="Arial" font-size="14.00" fill="#666666">[varchar(50)]</text>
<polygon fill="none" stroke="#000000" points="43.5,-655.5 43.5,-685.5 326.5,-685.5 326.5,-655.5 43.5,-655.5"/>
<text text-anchor="start" x="50.5" y="-666.9" font-family="Arial" font-size="14.00" fill="#000000">password    </text>
<text text-anchor="start" x="144.6024" y="-666.9" font-family="Arial" font-size="14.00" fill="#666666">[text]</text>
<polygon fill="none" stroke="#000000" points="43.5,-625.5 43.5,-655.5 326.5,-655.5 326.5,-625.5 43.5,-625.5"/>
<text text-anchor="start" x="50.5" y="-636.9" font-family="Arial" font-size="14.00" fill="#000000">role    </text>
<text text-anchor="start" x="108.0372" y="-636.9" font-family="Arial" font-size="14.00" fill="#666666">[varchar(20)]</text>
<polygon fill="none" stroke="#000000" points="43.5,-595.5 43.5,-625.5 326.5,-625.5 326.5,-595.5 43.5,-595.5"/>
<text text-anchor="start" x="50.5" y="-606.9" font-family="Arial" font-size="14.00" fill="#000000">branch_id    </text>
<text text-anchor="start" x="146.1676" y="-606.9" font-family="Arial" font-size="14.00" fill="#666666">[bigint]</text>
<polygon fill="none" stroke="#000000" points="43.5,-565.5 43.5,-595.5 326.5,-595.5 326.5,-565.5 43.5,-565.5"/>
<text text-anchor="start" x="50.5" y="-576.9" font-family="Arial" font-size="14.00" fill="#000000">status    </text>
<text text-anchor="start" x="122.0512" y="-576.9" font-family="Arial" font-size="14.00" fill="#666666">[varchar(20)]</text>
<polygon fill="none" stroke="#000000" points="43.5,-535.5 43.5,-565.5 326.5,-565.5 326.5,-535.5 43.5,-535.5"/>
<text text-anchor="start" x="50.5" y="-546.9" font-family="Arial" font-size="14.00" fill="#000000">created_at    </text>
<text text-anchor="start" x="150.8422" y="-546.9" font-family="Arial" font-size="14.00" fill="#666666">[timestamp with time zone]</text>
<polygon fill="none" stroke="#000000" points="43.5,-505.5 43.5,-535.5 326.5,-535.5 326.5,-505.5 43.5,-505.5"/>
<text text-anchor="start" x="50.0344" y="-516.9" font-family="Arial" font-size="14.00" fill="#000000">updated_at    </text>
<text text-anchor="start" x="154.2812" y="-516.9" font-family="Arial" font-size="14.00" fill="#666666">[timestamp with time zone]</text>
</g>
<!-- public.users&#45;&gt;public.branches -->
<g id="edge1" class="edge">
<title>public.users:branch_id&#45;&gt;public.branches:id</title>
<path fill="none" stroke="#000000" d="M336.7176,-609.8999C403.2977,-601.475 349.0814,-506.061 377.5,-433 401.3497,-371.6849 377.7098,-300.5 443.5,-300.5"/>
<polygon fill="#000000" stroke="#000000" points="336.4828,-609.9136 326.2361,-606.0077 331.4914,-610.2068 326.5,-610.5 326.5,-610.5 326.5,-610.5 331.4914,-610.2068 326.7639,-614.9923 336.4828,-609.9136 336.4828,-609.9136"/>
<text text-anchor="start" x="333.937" y="-620.5" font-family="Arial" font-size="10.00" fill="#000000">FOREIGN KEY (branch_id) REFERENCES branches(id)</text>
</g>
<!-- public.branch_wifis -->
<g id="node3" class="node">
<title>public.branch_wifis</title>
<polygon fill="#efefef" stroke="transparent" points="430.5,-775.5 430.5,-810.5 723.5,-810.5 723.5,-775.5 430.5,-775.5"/>
<polygon fill="none" stroke="#000000" points="430.5,-775.5 430.5,-810.5 723.5,-810.5 723.5,-775.5 430.5,-775.5"/>
<text text-anchor="start" x="437.2074" y="-788.3" font-family="Arial Bold" font-size="18.00" fill="#000000">public.branch_wifis</text>
<text text-anchor="start" x="589.2246" y="-788.3" font-family="Arial" font-size="14.00" fill="#000000">    </text>
<text text-anchor="start" x="623.4294" y="-788.3" font-family="Arial" font-size="14.00" fill="#666666">[BASE TABLE]</text>
<polygon fill="none" stroke="#000000" points="430.5,-745.5 430.5,-775.5 723.5,-775.5 723.5,-745.5 430.5,-745.5"/>
<text text-anchor="start" x="437.5" y="-756.9" font-family="Arial" font-size="14.00" fill="#000000">id    </text>
<text text-anchor="start" x="482.594" y="-756.9" font-family="Arial" font-size="14.00" fill="#666666">[bigint]</text>
<polygon fill="none" stroke="#000000" points="430.5,-715.5 430.5,-745.5 723.5,-745.5 723.5,-715.5 430.5,-715.5"/>
<text text-anchor="start" x="437.5" y="-726.9" font-family="Arial" font-size="14.00" fill="#000000">code    </text>
<text text-anchor="start" x="502.0526" y="-726.9" font-family="Arial" font-size="14.00" fill="#666666">[varchar(100)]</text>
<polygon fill="none" stroke="#000000" points="430.5,-685.5 430.5,-715.5 723.5,-715.5 723.5,-685.5 430.5,-685.5"/>
<text text-anchor="start" x="437.5" y="-696.9" font-family="Arial" font-size="14.00" fill="#000000">name    </text>
<text text-anchor="start" x="506.7132" y="-696.9" font-family="Arial" font-size="14.00" fill="#666666">[varchar(100)]</text>
<polygon fill="none" stroke="#000000" points="430.5,-655.5 430.5,-685.5 723.5,-685.5 723.5,-655.5 430.5,-655.5"/>
<text text-anchor="start" x="437.5" y="-666.9" font-family="Arial" font-size="14.00" fill="#000000">branch_id    </text>
<text text-anchor="start" x="533.1676" y="-666.9" font-family="Arial" font-size="14.00" fill="#666666">[bigint]</text>
<polygon fill="none" stroke="#000000" points="430.5,-625.5 430.5,-655.5 723.5,-655.5 723.5,-625.5 430.5,-625.5"/>
<text text-anchor="start" x="437.5" y="-636.9" font-family="Arial" font-size="14.00" fill="#000000">ssid    </text>
<text text-anchor="start" x="496.594" y="-636.9" font-family="Arial" font-size="14.00" fill="#666666">[varchar(100)]</text>
<polygon fill="none" stroke="#000000" points="430.5,-595.5 430.5,-625.5 723.5,-625.5 723.5,-595.5 430.5,-595.5"/>
<text text-anchor="start" x="437.5" y="-606.9" font-family="Arial" font-size="14.00" fill="#000000">bssid    </text>
<text text-anchor="start" x="504.3766" y="-606.9" font-family="Arial" font-size="14.00" fill="#666666">[varchar(100)]</text>
<polygon fill="none" stroke="#000000" points="430.5,-565.5 430.5,-595.5 723.5,-595.5 723.5,-565.5 430.5,-565.5"/>
<text text-anchor="start" x="437.5" y="-576.9" font-family="Arial" font-size="14.00" fill="#000000">created_at    </text>
<text text-anchor="start" x="537.8422" y="-576.9" font-family="Arial" font-size="14.00" fill="#666666">[timestamp with time zone]</text>
</g>
<!-- public.branch_wifis&#45;&gt;public.branches -->
<g id="edge2" class="edge">
<title>public.branch_wifis:branch_id&#45;&gt;public.branches:id</title>
<path fill="none" stroke="#000000" d="M422.2247,-664.6882C391.4482,-617.6162 405.4166,-300.5 443.5,-300.5"/>
<polygon fill="#000000" stroke="#000000" points="422.3165,-664.7527 427.9137,-674.1826 426.4083,-667.6263 430.5,-670.5 430.5,-670.5 430.5,-670.5 426.4083,-667.6263 433.0863,-666.8174 422.3165,-664.7527 422.3165,-664.7527"/>
<text text-anchor="start" x="437.937" y="-680.5" font-family="Arial" font-size="10.00" fill="#000000">FOREIGN KEY (branch_id) REFERENCES branches(id)</text>
</g>
<!-- public.attendances -->
<g id="node4" class="node">
<title>public.attendances</title>
<polygon fill="#efefef" stroke="transparent" points="827.5,-865.5 827.5,-900.5 1138.5,-900.5 1138.5,-865.5 827.5,-865.5"/>
<polygon fill="none" stroke="#000000" points="827.5,-865.5 827.5,-900.5 1138.5,-900.5 1138.5,-865.5 827.5,-865.5"/>
<text text-anchor="start" x="844.1875" y="-878.3" font-family="Arial Bold" font-size="18.00" fill="#000000">public.attendances</text>
<text text-anchor="start" x="994.2445" y="-878.3" font-family="Arial" font-size="14.00" fill="#000000">    </text>
<text text-anchor="start" x="1028.4493" y="-878.3" font-family="Arial" font-size="14.00" fill="#666666">[BASE TABLE]</text>
<polygon fill="none" stroke="#000000" points="827.5,-835.5 827.5,-865.5 1138.5,-865.5 1138.5,-835.5 827.5,-835.5"/>
<text text-anchor="start" x="834.5" y="-846.9" font-family="Arial" font-size="14.00" fill="#000000">id    </text>
<text text-anchor="start" x="879.594" y="-846.9" font-family="Arial" font-size="14.00" fill="#666666">[bigint]</text>
<polygon fill="none" stroke="#000000" points="827.5,-805.5 827.5,-835.5 1138.5,-835.5 1138.5,-805.5 827.5,-805.5"/>
<text text-anchor="start" x="834.5" y="-816.9" font-family="Arial" font-size="14.00" fill="#000000">user_id    </text>
<text text-anchor="start" x="914.6024" y="-816.9" font-family="Arial" font-size="14.00" fill="#666666">[bigint]</text>
<polygon fill="none" stroke="#000000" points="827.5,-775.5 827.5,-805.5 1138.5,-805.5 1138.5,-775.5 827.5,-775.5"/>
<text text-anchor="start" x="834.5" y="-786.9" font-family="Arial" font-size="14.00" fill="#000000">branch_id    </text>
<text text-anchor="start" x="930.1676" y="-786.9" font-family="Arial" font-size="14.00" fill="#666666">[bigint]</text>
<polygon fill="none" stroke="#000000" points="827.5,-745.5 827.5,-775.5 1138.5,-775.5 1138.5,-745.5 827.5,-745.5"/>
<text text-anchor="start" x="834.5" y="-756.9" font-family="Arial" font-size="14.00" fill="#000000">check_in_time    </text>
<text text-anchor="start" x="958.1648" y="-756.9" font-family="Arial" font-size="14.00" fill="#666666">[timestamp with time zone]</text>
<polygon fill="none" stroke="#000000" points="827.5,-715.5 827.5,-745.5 1138.5,-745.5 1138.5,-715.5 827.5,-715.5"/>
<text text-anchor="start" x="834.0421" y="-726.9" font-family="Arial" font-size="14.00" fill="#000000">check_out_time    </text>
<text text-anchor="start" x="966.2735" y="-726.9" font-family="Arial" font-size="14.00" fill="#666666">[timestamp with time zone]</text>
<polygon fill="none" stroke="#000000" points="827.5,-685.5 827.5,-715.5 1138.5,-715.5 1138.5,-685.5 827.5,-685.5"/>
<text text-anchor="start" x="834.5" y="-696.9" font-family="Arial" font-size="14.00" fill="#000000">check_in_lat    </text>
<text text-anchor="start" x="946.5042" y="-696.9" font-family="Arial" font-size="14.00" fill="#666666">[double precision]</text>
<polygon fill="none" stroke="#000000" points="827.5,-655.5 827.5,-685.5 1138.5,-685.5 1138.5,-655.5 827.5,-655.5"/>
<text text-anchor="start" x="834.5" y="-666.9" font-family="Arial" font-size="14.00" fill="#000000">check_in_lng    </text>
<text text-anchor="start" x="950.3962" y="-666.9" font-family="Arial" font-size="14.00" fill="#666666">[double precision]</text>
<polygon fill="none" stroke="#000000" points="827.5,-625.5 827.5,-655.5 1138.5,-655.5 1138.5,-625.5 827.5,-625.5"/>
<text text-anchor="start" x="834.5" y="-636.9" font-family="Arial" font-size="14.00" fill="#000000">check_out_lat    </text>
<text text-anchor="start" x="955.0708" y="-636.9" font-family="Arial" font-size="14.00" fill="#666666">[double precision]</text>
<polygon fill="none" stroke="#000000" points="827.5,-595.5 827.5,-625.5 1138.5,-625.5 1138.5,-595.5 827.5,-595.5"/>
<text text-anchor="start" x="834.5" y="-606.9" font-family="Arial" font-size="14.00" fill="#000000">check_out_lng    </text>
<text text-anchor="start" x="958.9628" y="-606.9" font-family="Arial" font-size="14.00" fill="#666666">[double precision]</text>
<polygon fill="none" stroke="#000000" points="827.5,-565.5 827.5,-595.5 1138.5,-595.5 1138.5,-565.5 827.5,-565.5"/>
<text text-anchor="start" x="834.5" y="-576.9" font-family="Arial" font-size="14.00" fill="#000000">wifi_bssid    </text>
<text text-anchor="start" x="929.3696" y="-576.9" font-family="Arial" font-size="14.00" fill="#666666">[varchar(100)]</text>
<polygon fill="none" stroke="#000000" points="827.5,-535.5 827.5,-565.5 1138.5,-565.5 1138.5,-535.5 827.5,-535.5"/>
<text text-anchor="start" x="834.5" y="-546.9" font-family="Arial" font-size="14.00" fill="#000000">device_id    </text>
<text text-anchor="start" x="927.831" y="-546.9" font-family="Arial" font-size="14.00" fill="#666666">[varchar(100)]</text>
<polygon fill="none" stroke="#000000" points="827.5,-505.5 827.5,-535.5 1138.5,-535.5 1138.5,-505.5 827.5,-505.5"/>
<text text-anchor="start" x="834.5" y="-516.9" font-family="Arial" font-size="14.00" fill="#000000">status    </text>
<text text-anchor="start" x="906.0512" y="-516.9" font-family="Arial" font-size="14.00" fill="#666666">[varchar(20)]</text>
<polygon fill="none" stroke="#000000" points="827.5,-475.5 827.5,-505.5 1138.5,-505.5 1138.5,-475.5 827.5,-475.5"/>
<text text-anchor="start" x="834.5" y="-486.9" font-family="Arial" font-size="14.00" fill="#000000">created_at    </text>
<text text-anchor="start" x="934.8422" y="-486.9" font-family="Arial" font-size="14.00" fill="#666666">[timestamp with time zone]</text>
</g>
<!-- public.attendances&#45;&gt;public.branches -->
<g id="edge3" class="edge">
<title>public.attendances:branch_id&#45;&gt;public.branches:id</title>
<path fill="none" stroke="#000000" d="M817.4631,-788.8439C751.7407,-765.6828 798.1776,-506.2437 775.5,-433 756.0998,-370.3414 776.0932,-300.5 710.5,-300.5"/>
<polygon fill="#000000" stroke="#000000" points="817.6334,-788.872 826.7674,-794.94 822.5667,-789.686 827.5,-790.5 827.5,-790.5 827.5,-790.5 822.5667,-789.686 828.2326,-786.06 817.6334,-788.872 817.6334,-788.872"/>
<text text-anchor="start" x="569.937" y="-800.5" font-family="Arial" font-size="10.00" fill="#000000">FOREIGN KEY (branch_id) REFERENCES branches(id)</text>
</g>
</g>
</svg>
