<?xml version="1.0" encoding="UTF-8" standalone="no"?>
<!DOCTYPE svg PUBLIC "-//W3C//DTD SVG 1.1//EN"
 "http://www.w3.org/Graphics/SVG/1.1/DTD/svg11.dtd">
<!-- Generated by graphviz version 2.40.1 (20161225.0304)
 -->
<!-- Title: dhdb Pages: 1 -->
<svg width="2425pt" height="1493pt"
 viewBox="0.00 0.00 2425.00 1493.00" xmlns="http://www.w3.org/2000/svg" xmlns:xlink="http://www.w3.org/1999/xlink">
<g id="graph0" class="graph" transform="scale(1 1) rotate(0) translate(4 1489)">
<title>dhdb</title>
<polygon fill="#ffffff" stroke="transparent" points="-4,4 -4,-1489 2421,-1489 2421,4 -4,4"/>
<!-- public.migrations -->
<g id="node1" class="node">
<title>public.migrations</title>
<polygon fill="#efefef" stroke="transparent" points="43,-1196.5 43,-1231.5 319,-1231.5 319,-1196.5 43,-1196.5"/>
<polygon fill="none" stroke="#000000" points="43,-1196.5 43,-1231.5 319,-1231.5 319,-1196.5 43,-1196.5"/>
<text text-anchor="start" x="49.7115" y="-1209.3" font-family="Arial Bold" font-size="18.00" fill="#000000">public.migrations</text>
<text text-anchor="start" x="184.7205" y="-1209.3" font-family="Arial" font-size="14.00" fill="#000000">    </text>
<text text-anchor="start" x="218.9253" y="-1209.3" font-family="Arial" font-size="14.00" fill="#666666">[BASE TABLE]</text>
<polygon fill="none" stroke="#000000" points="43,-1166.5 43,-1196.5 319,-1196.5 319,-1166.5 43,-1166.5"/>
<text text-anchor="start" x="50" y="-1177.9" font-family="Arial" font-size="14.00" fill="#000000">id    </text>
<text text-anchor="start" x="95.094" y="-1177.9" font-family="Arial" font-size="14.00" fill="#666666">[varchar(255)]</text>
</g>
<!-- public.companies -->
<g id="node2" class="node">
<title>public.companies</title>
<polygon fill="#efefef" stroke="transparent" points="424,-1406.5 424,-1441.5 707,-1441.5 707,-1406.5 424,-1406.5"/>
<polygon fill="none" stroke="#000000" points="424,-1406.5 424,-1441.5 707,-1441.5 707,-1406.5 424,-1406.5"/>
<text text-anchor="start" x="432.2027" y="-1419.3" font-family="Arial Bold" font-size="18.00" fill="#000000">public.companies</text>
<text text-anchor="start" x="571.2293" y="-1419.3" font-family="Arial" font-size="14.00" fill="#000000">    </text>
<text text-anchor="start" x="605.4341" y="-1419.3" font-family="Arial" font-size="14.00" fill="#666666">[BASE TABLE]</text>
<polygon fill="none" stroke="#000000" points="424,-1376.5 424,-1406.5 707,-1406.5 707,-1376.5 424,-1376.5"/>
<text text-anchor="start" x="431" y="-1387.9" font-family="Arial" font-size="14.00" fill="#000000">id    </text>
<text text-anchor="start" x="476.094" y="-1387.9" font-family="Arial" font-size="14.00" fill="#666666">[bigint]</text>
<polygon fill="none" stroke="#000000" points="424,-1346.5 424,-1376.5 707,-1376.5 707,-1346.5 424,-1346.5"/>
<text text-anchor="start" x="431" y="-1357.9" font-family="Arial" font-size="14.00" fill="#000000">name    </text>
<text text-anchor="start" x="500.2132" y="-1357.9" font-family="Arial" font-size="14.00" fill="#666666">[varchar(255)]</text>
<polygon fill="none" stroke="#000000" points="424,-1316.5 424,-1346.5 707,-1346.5 707,-1316.5 424,-1316.5"/>
<text text-anchor="start" x="431" y="-1327.9" font-family="Arial" font-size="14.00" fill="#000000">cif    </text>
<text text-anchor="start" x="479.202" y="-1327.9" font-family="Arial" font-size="14.00" fill="#666666">[varchar(255)]</text>
<polygon fill="none" stroke="#000000" points="424,-1286.5 424,-1316.5 707,-1316.5 707,-1286.5 424,-1286.5"/>
<text text-anchor="start" x="431" y="-1297.9" font-family="Arial" font-size="14.00" fill="#000000">business_license    </text>
<text text-anchor="start" x="571.7854" y="-1297.9" font-family="Arial" font-size="14.00" fill="#666666">[varchar(255)]</text>
<polygon fill="none" stroke="#000000" points="424,-1256.5 424,-1286.5 707,-1286.5 707,-1256.5 424,-1256.5"/>
<text text-anchor="start" x="431" y="-1267.9" font-family="Arial" font-size="14.00" fill="#000000">parent_id    </text>
<text text-anchor="start" x="523.5582" y="-1267.9" font-family="Arial" font-size="14.00" fill="#666666">[bigint]</text>
<polygon fill="none" stroke="#000000" points="424,-1226.5 424,-1256.5 707,-1256.5 707,-1226.5 424,-1226.5"/>
<text text-anchor="start" x="431" y="-1237.9" font-family="Arial" font-size="14.00" fill="#000000">representative    </text>
<text text-anchor="start" x="553.892" y="-1237.9" font-family="Arial" font-size="14.00" fill="#666666">[varchar(255)]</text>
<polygon fill="none" stroke="#000000" points="424,-1196.5 424,-1226.5 707,-1226.5 707,-1196.5 424,-1196.5"/>
<text text-anchor="start" x="431" y="-1207.9" font-family="Arial" font-size="14.00" fill="#000000">status    </text>
<text text-anchor="start" x="502.5512" y="-1207.9" font-family="Arial" font-size="14.00" fill="#666666">[varchar(255)]</text>
<polygon fill="none" stroke="#000000" points="424,-1166.5 424,-1196.5 707,-1196.5 707,-1166.5 424,-1166.5"/>
<text text-anchor="start" x="431" y="-1177.9" font-family="Arial" font-size="14.00" fill="#000000">need_approve_new_store    </text>
<text text-anchor="start" x="627.0448" y="-1177.9" font-family="Arial" font-size="14.00" fill="#666666">[boolean]</text>
<polygon fill="none" stroke="#000000" points="424,-1136.5 424,-1166.5 707,-1166.5 707,-1136.5 424,-1136.5"/>
<text text-anchor="start" x="431" y="-1147.9" font-family="Arial" font-size="14.00" fill="#000000">need_approve_new_staff    </text>
<text text-anchor="start" x="622.3828" y="-1147.9" font-family="Arial" font-size="14.00" fill="#666666">[boolean]</text>
<polygon fill="none" stroke="#000000" points="424,-1106.5 424,-1136.5 707,-1136.5 707,-1106.5 424,-1106.5"/>
<text text-anchor="start" x="431" y="-1117.9" font-family="Arial" font-size="14.00" fill="#000000">hdb_can_manage    </text>
<text text-anchor="start" x="577.2566" y="-1117.9" font-family="Arial" font-size="14.00" fill="#666666">[boolean]</text>
<polygon fill="none" stroke="#000000" points="424,-1076.5 424,-1106.5 707,-1106.5 707,-1076.5 424,-1076.5"/>
<text text-anchor="start" x="431" y="-1087.9" font-family="Arial" font-size="14.00" fill="#000000">accts    </text>
<text text-anchor="start" x="497.878" y="-1087.9" font-family="Arial" font-size="14.00" fill="#666666">[text]</text>
<polygon fill="none" stroke="#000000" points="424,-1046.5 424,-1076.5 707,-1076.5 707,-1046.5 424,-1046.5"/>
<text text-anchor="start" x="431" y="-1057.9" font-family="Arial" font-size="14.00" fill="#000000">partner_status    </text>
<text text-anchor="start" x="554.676" y="-1057.9" font-family="Arial" font-size="14.00" fill="#666666">[varchar(255)]</text>
<polygon fill="none" stroke="#000000" points="424,-1016.5 424,-1046.5 707,-1046.5 707,-1016.5 424,-1016.5"/>
<text text-anchor="start" x="431" y="-1027.9" font-family="Arial" font-size="14.00" fill="#000000">created_at    </text>
<text text-anchor="start" x="531.3422" y="-1027.9" font-family="Arial" font-size="14.00" fill="#666666">[timestamp with time zone]</text>
<polygon fill="none" stroke="#000000" points="424,-986.5 424,-1016.5 707,-1016.5 707,-986.5 424,-986.5"/>
<text text-anchor="start" x="430.5344" y="-997.9" font-family="Arial" font-size="14.00" fill="#000000">updated_at    </text>
<text text-anchor="start" x="534.7812" y="-997.9" font-family="Arial" font-size="14.00" fill="#666666">[timestamp with time zone]</text>
<polygon fill="none" stroke="#000000" points="424,-956.5 424,-986.5 707,-986.5 707,-956.5 424,-956.5"/>
<text text-anchor="start" x="431" y="-967.9" font-family="Arial" font-size="14.00" fill="#000000">deleted_at    </text>
<text text-anchor="start" x="530.5708" y="-967.9" font-family="Arial" font-size="14.00" fill="#666666">[timestamp with time zone]</text>
</g>
<!-- public.branches -->
<g id="node3" class="node">
<title>public.branches</title>
<polygon fill="#efefef" stroke="transparent" points="932,-312.5 932,-347.5 1215,-347.5 1215,-312.5 932,-312.5"/>
<polygon fill="none" stroke="#000000" points="932,-312.5 932,-347.5 1215,-347.5 1215,-312.5 932,-312.5"/>
<text text-anchor="start" x="946.6998" y="-325.3" font-family="Arial Bold" font-size="18.00" fill="#000000">public.branches</text>
<text text-anchor="start" x="1072.7322" y="-325.3" font-family="Arial" font-size="14.00" fill="#000000">    </text>
<text text-anchor="start" x="1106.937" y="-325.3" font-family="Arial" font-size="14.00" fill="#666666">[BASE TABLE]</text>
<polygon fill="none" stroke="#000000" points="932,-282.5 932,-312.5 1215,-312.5 1215,-282.5 932,-282.5"/>
<text text-anchor="start" x="939" y="-293.9" font-family="Arial" font-size="14.00" fill="#000000">id    </text>
<text text-anchor="start" x="984.094" y="-293.9" font-family="Arial" font-size="14.00" fill="#666666">[bigint]</text>
<polygon fill="none" stroke="#000000" points="932,-252.5 932,-282.5 1215,-282.5 1215,-252.5 932,-252.5"/>
<text text-anchor="start" x="939" y="-263.9" font-family="Arial" font-size="14.00" fill="#000000">name    </text>
<text text-anchor="start" x="1008.2132" y="-263.9" font-family="Arial" font-size="14.00" fill="#666666">[varchar(100)]</text>
<polygon fill="none" stroke="#000000" points="932,-222.5 932,-252.5 1215,-252.5 1215,-222.5 932,-222.5"/>
<text text-anchor="start" x="939" y="-233.9" font-family="Arial" font-size="14.00" fill="#000000">address    </text>
<text text-anchor="start" x="1022.9958" y="-233.9" font-family="Arial" font-size="14.00" fill="#666666">[text]</text>
<polygon fill="none" stroke="#000000" points="932,-192.5 932,-222.5 1215,-222.5 1215,-192.5 932,-192.5"/>
<text text-anchor="start" x="939" y="-203.9" font-family="Arial" font-size="14.00" fill="#000000">lat    </text>
<text text-anchor="start" x="987.9846" y="-203.9" font-family="Arial" font-size="14.00" fill="#666666">[double precision]</text>
<polygon fill="none" stroke="#000000" points="932,-162.5 932,-192.5 1215,-192.5 1215,-162.5 932,-162.5"/>
<text text-anchor="start" x="939" y="-173.9" font-family="Arial" font-size="14.00" fill="#000000">lng    </text>
<text text-anchor="start" x="991.8766" y="-173.9" font-family="Arial" font-size="14.00" fill="#666666">[double precision]</text>
<polygon fill="none" stroke="#000000" points="932,-132.5 932,-162.5 1215,-162.5 1215,-132.5 932,-132.5"/>
<text text-anchor="start" x="939" y="-143.9" font-family="Arial" font-size="14.00" fill="#000000">radius    </text>
<text text-anchor="start" x="1011.3198" y="-143.9" font-family="Arial" font-size="14.00" fill="#666666">[bigint]</text>
<polygon fill="none" stroke="#000000" points="932,-102.5 932,-132.5 1215,-132.5 1215,-102.5 932,-102.5"/>
<text text-anchor="start" x="939" y="-113.9" font-family="Arial" font-size="14.00" fill="#000000">status    </text>
<text text-anchor="start" x="1010.5512" y="-113.9" font-family="Arial" font-size="14.00" fill="#666666">[varchar(20)]</text>
<polygon fill="none" stroke="#000000" points="932,-72.5 932,-102.5 1215,-102.5 1215,-72.5 932,-72.5"/>
<text text-anchor="start" x="939" y="-83.9" font-family="Arial" font-size="14.00" fill="#000000">created_at    </text>
<text text-anchor="start" x="1039.3422" y="-83.9" font-family="Arial" font-size="14.00" fill="#666666">[timestamp with time zone]</text>
<polygon fill="none" stroke="#000000" points="932,-42.5 932,-72.5 1215,-72.5 1215,-42.5 932,-42.5"/>
<text text-anchor="start" x="938.5344" y="-53.9" font-family="Arial" font-size="14.00" fill="#000000">updated_at    </text>
<text text-anchor="start" x="1042.7812" y="-53.9" font-family="Arial" font-size="14.00" fill="#666666">[timestamp with time zone]</text>
</g>
<!-- public.users -->
<g id="node4" class="node">
<title>public.users</title>
<polygon fill="#efefef" stroke="transparent" points="932,-799.5 932,-834.5 1215,-834.5 1215,-799.5 932,-799.5"/>
<polygon fill="none" stroke="#000000" points="932,-799.5 932,-834.5 1215,-834.5 1215,-799.5 932,-799.5"/>
<text text-anchor="start" x="961.7091" y="-812.3" font-family="Arial Bold" font-size="18.00" fill="#000000">public.users</text>
<text text-anchor="start" x="1057.7229" y="-812.3" font-family="Arial" font-size="14.00" fill="#000000">    </text>
<text text-anchor="start" x="1091.9277" y="-812.3" font-family="Arial" font-size="14.00" fill="#666666">[BASE TABLE]</text>
<polygon fill="none" stroke="#000000" points="932,-769.5 932,-799.5 1215,-799.5 1215,-769.5 932,-769.5"/>
<text text-anchor="start" x="939" y="-780.9" font-family="Arial" font-size="14.00" fill="#000000">id    </text>
<text text-anchor="start" x="984.094" y="-780.9" font-family="Arial" font-size="14.00" fill="#666666">[bigint]</text>
<polygon fill="none" stroke="#000000" points="932,-739.5 932,-769.5 1215,-769.5 1215,-739.5 932,-739.5"/>
<text text-anchor="start" x="939" y="-750.9" font-family="Arial" font-size="14.00" fill="#000000">name    </text>
<text text-anchor="start" x="1008.2132" y="-750.9" font-family="Arial" font-size="14.00" fill="#666666">[varchar(100)]</text>
<polygon fill="none" stroke="#000000" points="932,-709.5 932,-739.5 1215,-739.5 1215,-709.5 932,-709.5"/>
<text text-anchor="start" x="939" y="-720.9" font-family="Arial" font-size="14.00" fill="#000000">code    </text>
<text text-anchor="start" x="1003.5526" y="-720.9" font-family="Arial" font-size="14.00" fill="#666666">[varchar(100)]</text>
<polygon fill="none" stroke="#000000" points="932,-679.5 932,-709.5 1215,-709.5 1215,-679.5 932,-679.5"/>
<text text-anchor="start" x="939" y="-690.9" font-family="Arial" font-size="14.00" fill="#000000">email    </text>
<text text-anchor="start" x="1006.6438" y="-690.9" font-family="Arial" font-size="14.00" fill="#666666">[varchar(150)]</text>
<polygon fill="none" stroke="#000000" points="932,-649.5 932,-679.5 1215,-679.5 1215,-649.5 932,-649.5"/>
<text text-anchor="start" x="939" y="-660.9" font-family="Arial" font-size="14.00" fill="#000000">phone    </text>
<text text-anchor="start" x="1012.1178" y="-660.9" font-family="Arial" font-size="14.00" fill="#666666">[varchar(50)]</text>
<polygon fill="none" stroke="#000000" points="932,-619.5 932,-649.5 1215,-649.5 1215,-619.5 932,-619.5"/>
<text text-anchor="start" x="939" y="-630.9" font-family="Arial" font-size="14.00" fill="#000000">password    </text>
<text text-anchor="start" x="1033.1024" y="-630.9" font-family="Arial" font-size="14.00" fill="#666666">[text]</text>
<polygon fill="none" stroke="#000000" points="932,-589.5 932,-619.5 1215,-619.5 1215,-589.5 932,-589.5"/>
<text text-anchor="start" x="939" y="-600.9" font-family="Arial" font-size="14.00" fill="#000000">role    </text>
<text text-anchor="start" x="996.5372" y="-600.9" font-family="Arial" font-size="14.00" fill="#666666">[varchar(20)]</text>
<polygon fill="none" stroke="#000000" points="932,-559.5 932,-589.5 1215,-589.5 1215,-559.5 932,-559.5"/>
<text text-anchor="start" x="939" y="-570.9" font-family="Arial" font-size="14.00" fill="#000000">branch_id    </text>
<text text-anchor="start" x="1034.6676" y="-570.9" font-family="Arial" font-size="14.00" fill="#666666">[bigint]</text>
<polygon fill="none" stroke="#000000" points="932,-529.5 932,-559.5 1215,-559.5 1215,-529.5 932,-529.5"/>
<text text-anchor="start" x="939" y="-540.9" font-family="Arial" font-size="14.00" fill="#000000">status    </text>
<text text-anchor="start" x="1010.5512" y="-540.9" font-family="Arial" font-size="14.00" fill="#666666">[varchar(20)]</text>
<polygon fill="none" stroke="#000000" points="932,-499.5 932,-529.5 1215,-529.5 1215,-499.5 932,-499.5"/>
<text text-anchor="start" x="939" y="-510.9" font-family="Arial" font-size="14.00" fill="#000000">created_at    </text>
<text text-anchor="start" x="1039.3422" y="-510.9" font-family="Arial" font-size="14.00" fill="#666666">[timestamp with time zone]</text>
<polygon fill="none" stroke="#000000" points="932,-469.5 932,-499.5 1215,-499.5 1215,-469.5 932,-469.5"/>
<text text-anchor="start" x="938.5344" y="-480.9" font-family="Arial" font-size="14.00" fill="#000000">updated_at    </text>
<text text-anchor="start" x="1042.7812" y="-480.9" font-family="Arial" font-size="14.00" fill="#666666">[timestamp with time zone]</text>
</g>
<!-- public.users&#45;&gt;public.branches -->
<g id="edge1" class="edge">
<title>public.users:branch_id&#45;&gt;public.branches:id</title>
<path fill="none" stroke="#000000" d="M922.1328,-571.9347C870.6419,-544.0098 873.931,-297.5 932,-297.5"/>
<polygon fill="#000000" stroke="#000000" points="922.3217,-571.9837 930.8677,-578.8552 927.1609,-573.2419 932,-574.5 932,-574.5 932,-574.5 927.1609,-573.2419 933.1323,-570.1448 922.3217,-571.9837 922.3217,-571.9837"/>
<text text-anchor="start" x="674.437" y="-584.5" font-family="Arial" font-size="10.00" fill="#000000">FOREIGN KEY (branch_id) REFERENCES branches(id)</text>
</g>
<!-- public.branch_wifis -->
<g id="node5" class="node">
<title>public.branch_wifis</title>
<polygon fill="#efefef" stroke="transparent" points="1319,-739.5 1319,-774.5 1612,-774.5 1612,-739.5 1319,-739.5"/>
<polygon fill="none" stroke="#000000" points="1319,-739.5 1319,-774.5 1612,-774.5 1612,-739.5 1319,-739.5"/>
<text text-anchor="start" x="1325.7074" y="-752.3" font-family="Arial Bold" font-size="18.00" fill="#000000">public.branch_wifis</text>
<text text-anchor="start" x="1477.7246" y="-752.3" font-family="Arial" font-size="14.00" fill="#000000">    </text>
<text text-anchor="start" x="1511.9294" y="-752.3" font-family="Arial" font-size="14.00" fill="#666666">[BASE TABLE]</text>
<polygon fill="none" stroke="#000000" points="1319,-709.5 1319,-739.5 1612,-739.5 1612,-709.5 1319,-709.5"/>
<text text-anchor="start" x="1326" y="-720.9" font-family="Arial" font-size="14.00" fill="#000000">id    </text>
<text text-anchor="start" x="1371.094" y="-720.9" font-family="Arial" font-size="14.00" fill="#666666">[bigint]</text>
<polygon fill="none" stroke="#000000" points="1319,-679.5 1319,-709.5 1612,-709.5 1612,-679.5 1319,-679.5"/>
<text text-anchor="start" x="1326" y="-690.9" font-family="Arial" font-size="14.00" fill="#000000">code    </text>
<text text-anchor="start" x="1390.5526" y="-690.9" font-family="Arial" font-size="14.00" fill="#666666">[varchar(100)]</text>
<polygon fill="none" stroke="#000000" points="1319,-649.5 1319,-679.5 1612,-679.5 1612,-649.5 1319,-649.5"/>
<text text-anchor="start" x="1326" y="-660.9" font-family="Arial" font-size="14.00" fill="#000000">name    </text>
<text text-anchor="start" x="1395.2132" y="-660.9" font-family="Arial" font-size="14.00" fill="#666666">[varchar(100)]</text>
<polygon fill="none" stroke="#000000" points="1319,-619.5 1319,-649.5 1612,-649.5 1612,-619.5 1319,-619.5"/>
<text text-anchor="start" x="1326" y="-630.9" font-family="Arial" font-size="14.00" fill="#000000">branch_id    </text>
<text text-anchor="start" x="1421.6676" y="-630.9" font-family="Arial" font-size="14.00" fill="#666666">[bigint]</text>
<polygon fill="none" stroke="#000000" points="1319,-589.5 1319,-619.5 1612,-619.5 1612,-589.5 1319,-589.5"/>
<text text-anchor="start" x="1326" y="-600.9" font-family="Arial" font-size="14.00" fill="#000000">ssid    </text>
<text text-anchor="start" x="1385.094" y="-600.9" font-family="Arial" font-size="14.00" fill="#666666">[varchar(100)]</text>
<polygon fill="none" stroke="#000000" points="1319,-559.5 1319,-589.5 1612,-589.5 1612,-559.5 1319,-559.5"/>
<text text-anchor="start" x="1326" y="-570.9" font-family="Arial" font-size="14.00" fill="#000000">bssid    </text>
<text text-anchor="start" x="1392.8766" y="-570.9" font-family="Arial" font-size="14.00" fill="#666666">[varchar(100)]</text>
<polygon fill="none" stroke="#000000" points="1319,-529.5 1319,-559.5 1612,-559.5 1612,-529.5 1319,-529.5"/>
<text text-anchor="start" x="1326" y="-540.9" font-family="Arial" font-size="14.00" fill="#000000">created_at    </text>
<text text-anchor="start" x="1426.3422" y="-540.9" font-family="Arial" font-size="14.00" fill="#666666">[timestamp with time zone]</text>
</g>
<!-- public.branch_wifis&#45;&gt;public.branches -->
<g id="edge2" class="edge">
<title>public.branch_wifis:branch_id&#45;&gt;public.branches:id</title>
<path fill="none" stroke="#000000" d="M1308.5926,-633.9733C1229.2459,-625.405 1294.1305,-514.0316 1266,-427 1246.9753,-368.1402 1276.8581,-297.5 1215,-297.5"/>
<polygon fill="#000000" stroke="#000000" points="1309.0128,-633.9944 1318.7725,-638.9942 1314.0064,-634.2472 1319,-634.5 1319,-634.5 1319,-634.5 1314.0064,-634.2472 1319.2275,-630.0058 1309.0128,-633.9944 1309.0128,-633.9944"/>
<text text-anchor="start" x="1326.437" y="-644.5" font-family="Arial" font-size="10.00" fill="#000000">FOREIGN KEY (branch_id) REFERENCES branches(id)</text>
</g>
<!-- public.attendances -->
<g id="node6" class="node">
<title>public.attendances</title>
<polygon fill="#efefef" stroke="transparent" points="811,-1376.5 811,-1411.5 1122,-1411.5 1122,-1376.5 811,-1376.5"/>
<polygon fill="none" stroke="#000000" points="811,-1376.5 811,-1411.5 1122,-1411.5 1122,-1376.5 811,-1376.5"/>
<text text-anchor="start" x="827.6875" y="-1389.3" font-family="Arial Bold" font-size="18.00" fill="#000000">public.attendances</text>
<text text-anchor="start" x="977.7445" y="-1389.3" font-family="Arial" font-size="14.00" fill="#000000">    </text>
<text text-anchor="start" x="1011.9493" y="-1389.3" font-family="Arial" font-size="14.00" fill="#666666">[BASE TABLE]</text>
<polygon fill="none" stroke="#000000" points="811,-1346.5 811,-1376.5 1122,-1376.5 1122,-1346.5 811,-1346.5"/>
<text text-anchor="start" x="818" y="-1357.9" font-family="Arial" font-size="14.00" fill="#000000">id    </text>
<text text-anchor="start" x="863.094" y="-1357.9" font-family="Arial" font-size="14.00" fill="#666666">[bigint]</text>
<polygon fill="none" stroke="#000000" points="811,-1316.5 811,-1346.5 1122,-1346.5 1122,-1316.5 811,-1316.5"/>
<text text-anchor="start" x="818" y="-1327.9" font-family="Arial" font-size="14.00" fill="#000000">user_id    </text>
<text text-anchor="start" x="898.1024" y="-1327.9" font-family="Arial" font-size="14.00" fill="#666666">[bigint]</text>
<polygon fill="none" stroke="#000000" points="811,-1286.5 811,-1316.5 1122,-1316.5 1122,-1286.5 811,-1286.5"/>
<text text-anchor="start" x="818" y="-1297.9" font-family="Arial" font-size="14.00" fill="#000000">branch_id    </text>
<text text-anchor="start" x="913.6676" y="-1297.9" font-family="Arial" font-size="14.00" fill="#666666">[bigint]</text>
<polygon fill="none" stroke="#000000" points="811,-1256.5 811,-1286.5 1122,-1286.5 1122,-1256.5 811,-1256.5"/>
<text text-anchor="start" x="818" y="-1267.9" font-family="Arial" font-size="14.00" fill="#000000">check_in_time    </text>
<text text-anchor="start" x="941.6648" y="-1267.9" font-family="Arial" font-size="14.00" fill="#666666">[timestamp with time zone]</text>
<polygon fill="none" stroke="#000000" points="811,-1226.5 811,-1256.5 1122,-1256.5 1122,-1226.5 811,-1226.5"/>
<text text-anchor="start" x="817.5421" y="-1237.9" font-family="Arial" font-size="14.00" fill="#000000">check_out_time    </text>
<text text-anchor="start" x="949.7735" y="-1237.9" font-family="Arial" font-size="14.00" fill="#666666">[timestamp with time zone]</text>
<polygon fill="none" stroke="#000000" points="811,-1196.5 811,-1226.5 1122,-1226.5 1122,-1196.5 811,-1196.5"/>
<text text-anchor="start" x="818" y="-1207.9" font-family="Arial" font-size="14.00" fill="#000000">check_in_lat    </text>
<text text-anchor="start" x="930.0042" y="-1207.9" font-family="Arial" font-size="14.00" fill="#666666">[double precision]</text>
<polygon fill="none" stroke="#000000" points="811,-1166.5 811,-1196.5 1122,-1196.5 1122,-1166.5 811,-1166.5"/>
<text text-anchor="start" x="818" y="-1177.9" font-family="Arial" font-size="14.00" fill="#000000">check_in_lng    </text>
<text text-anchor="start" x="933.8962" y="-1177.9" font-family="Arial" font-size="14.00" fill="#666666">[double precision]</text>
<polygon fill="none" stroke="#000000" points="811,-1136.5 811,-1166.5 1122,-1166.5 1122,-1136.5 811,-1136.5"/>
<text text-anchor="start" x="818" y="-1147.9" font-family="Arial" font-size="14.00" fill="#000000">check_out_lat    </text>
<text text-anchor="start" x="938.5708" y="-1147.9" font-family="Arial" font-size="14.00" fill="#666666">[double precision]</text>
<polygon fill="none" stroke="#000000" points="811,-1106.5 811,-1136.5 1122,-1136.5 1122,-1106.5 811,-1106.5"/>
<text text-anchor="start" x="818" y="-1117.9" font-family="Arial" font-size="14.00" fill="#000000">check_out_lng    </text>
<text text-anchor="start" x="942.4628" y="-1117.9" font-family="Arial" font-size="14.00" fill="#666666">[double precision]</text>
<polygon fill="none" stroke="#000000" points="811,-1076.5 811,-1106.5 1122,-1106.5 1122,-1076.5 811,-1076.5"/>
<text text-anchor="start" x="818" y="-1087.9" font-family="Arial" font-size="14.00" fill="#000000">wifi_bssid    </text>
<text text-anchor="start" x="912.8696" y="-1087.9" font-family="Arial" font-size="14.00" fill="#666666">[varchar(100)]</text>
<polygon fill="none" stroke="#000000" points="811,-1046.5 811,-1076.5 1122,-1076.5 1122,-1046.5 811,-1046.5"/>
<text text-anchor="start" x="818" y="-1057.9" font-family="Arial" font-size="14.00" fill="#000000">device_id    </text>
<text text-anchor="start" x="911.331" y="-1057.9" font-family="Arial" font-size="14.00" fill="#666666">[varchar(100)]</text>
<polygon fill="none" stroke="#000000" points="811,-1016.5 811,-1046.5 1122,-1046.5 1122,-1016.5 811,-1016.5"/>
<text text-anchor="start" x="818" y="-1027.9" font-family="Arial" font-size="14.00" fill="#000000">status    </text>
<text text-anchor="start" x="889.5512" y="-1027.9" font-family="Arial" font-size="14.00" fill="#666666">[varchar(20)]</text>
<polygon fill="none" stroke="#000000" points="811,-986.5 811,-1016.5 1122,-1016.5 1122,-986.5 811,-986.5"/>
<text text-anchor="start" x="818" y="-997.9" font-family="Arial" font-size="14.00" fill="#000000">created_at    </text>
<text text-anchor="start" x="918.3422" y="-997.9" font-family="Arial" font-size="14.00" fill="#666666">[timestamp with time zone]</text>
</g>
<!-- public.attendances&#45;&gt;public.branches -->
<g id="edge3" class="edge">
<title>public.attendances:branch_id&#45;&gt;public.branches:id</title>
<path fill="none" stroke="#000000" d="M801.1423,-1298.6199C706.1913,-1239.7305 823.1486,-297.5 932,-297.5"/>
<polygon fill="#000000" stroke="#000000" points="801.4013,-1298.6955 809.738,-1305.8194 806.2006,-1300.0977 811,-1301.5 811,-1301.5 811,-1301.5 806.2006,-1300.0977 812.262,-1297.1806 801.4013,-1298.6955 801.4013,-1298.6955"/>
<text text-anchor="start" x="553.437" y="-1311.5" font-family="Arial" font-size="10.00" fill="#000000">FOREIGN KEY (branch_id) REFERENCES branches(id)</text>
</g>
<!-- public.attendances&#45;&gt;public.users -->
<g id="edge4" class="edge">
<title>public.attendances:user_id&#45;&gt;public.users:id</title>
<path fill="none" stroke="#000000" d="M1131.9859,-1329.9374C1205.1184,-1305.885 1169.8627,-1011.2941 1122,-944 1070.1874,-871.1524 983.8126,-950.8476 932,-878 907.9145,-844.1362 890.4444,-784.5 932,-784.5"/>
<polygon fill="#000000" stroke="#000000" points="1131.8798,-1329.954 1121.3043,-1327.0541 1126.9399,-1330.727 1122,-1331.5 1122,-1331.5 1122,-1331.5 1126.9399,-1330.727 1122.6957,-1335.9459 1131.8798,-1329.954 1131.8798,-1329.954"/>
<text text-anchor="start" x="1129.3345" y="-1341.5" font-family="Arial" font-size="10.00" fill="#000000">FOREIGN KEY (user_id) REFERENCES users(id)</text>
</g>
<!-- public.shifts -->
<g id="node7" class="node">
<title>public.shifts</title>
<polygon fill="#efefef" stroke="transparent" points="1226,-1256.5 1226,-1291.5 1506,-1291.5 1506,-1256.5 1226,-1256.5"/>
<polygon fill="none" stroke="#000000" points="1226,-1256.5 1226,-1291.5 1506,-1291.5 1506,-1256.5 1226,-1256.5"/>
<text text-anchor="start" x="1255.209" y="-1269.3" font-family="Arial Bold" font-size="18.00" fill="#000000">public.shifts</text>
<text text-anchor="start" x="1349.223" y="-1269.3" font-family="Arial" font-size="14.00" fill="#000000">    </text>
<text text-anchor="start" x="1383.4278" y="-1269.3" font-family="Arial" font-size="14.00" fill="#666666">[BASE TABLE]</text>
<polygon fill="none" stroke="#000000" points="1226,-1226.5 1226,-1256.5 1506,-1256.5 1506,-1226.5 1226,-1226.5"/>
<text text-anchor="start" x="1233" y="-1237.9" font-family="Arial" font-size="14.00" fill="#000000">id    </text>
<text text-anchor="start" x="1278.094" y="-1237.9" font-family="Arial" font-size="14.00" fill="#666666">[bigint]</text>
<polygon fill="none" stroke="#000000" points="1226,-1196.5 1226,-1226.5 1506,-1226.5 1506,-1196.5 1226,-1196.5"/>
<text text-anchor="start" x="1233" y="-1207.9" font-family="Arial" font-size="14.00" fill="#000000">branch_id    </text>
<text text-anchor="start" x="1328.6676" y="-1207.9" font-family="Arial" font-size="14.00" fill="#666666">[bigint]</text>
<polygon fill="none" stroke="#000000" points="1226,-1166.5 1226,-1196.5 1506,-1196.5 1506,-1166.5 1226,-1166.5"/>
<text text-anchor="start" x="1233" y="-1177.9" font-family="Arial" font-size="14.00" fill="#000000">start_time    </text>
<text text-anchor="start" x="1328.6522" y="-1177.9" font-family="Arial" font-size="14.00" fill="#666666">[timestamp with time zone]</text>
<polygon fill="none" stroke="#000000" points="1226,-1136.5 1226,-1166.5 1506,-1166.5 1506,-1136.5 1226,-1136.5"/>
<text text-anchor="start" x="1233" y="-1147.9" font-family="Arial" font-size="14.00" fill="#000000">end_time    </text>
<text text-anchor="start" x="1324.7756" y="-1147.9" font-family="Arial" font-size="14.00" fill="#666666">[timestamp with time zone]</text>
<polygon fill="none" stroke="#000000" points="1226,-1106.5 1226,-1136.5 1506,-1136.5 1506,-1106.5 1226,-1106.5"/>
<text text-anchor="start" x="1232.9867" y="-1117.9" font-family="Arial" font-size="14.00" fill="#000000">created_at    </text>
<text text-anchor="start" x="1333.3289" y="-1117.9" font-family="Arial" font-size="14.00" fill="#666666">[timestamp with time zone]</text>
</g>
<!-- public.attendance_summaries -->
<g id="node8" class="node">
<title>public.attendance_summaries</title>
<polygon fill="#efefef" stroke="transparent" points="1610,-1271.5 1610,-1306.5 1990,-1306.5 1990,-1271.5 1610,-1271.5"/>
<polygon fill="none" stroke="#000000" points="1610,-1271.5 1610,-1306.5 1990,-1306.5 1990,-1271.5 1610,-1271.5"/>
<text text-anchor="start" x="1616.6897" y="-1284.3" font-family="Arial Bold" font-size="18.00" fill="#000000">public.attendance_summaries</text>
<text text-anchor="start" x="1855.7423" y="-1284.3" font-family="Arial" font-size="14.00" fill="#000000">    </text>
<text text-anchor="start" x="1889.9471" y="-1284.3" font-family="Arial" font-size="14.00" fill="#666666">[BASE TABLE]</text>
<polygon fill="none" stroke="#000000" points="1610,-1241.5 1610,-1271.5 1990,-1271.5 1990,-1241.5 1610,-1241.5"/>
<text text-anchor="start" x="1617" y="-1252.9" font-family="Arial" font-size="14.00" fill="#000000">id    </text>
<text text-anchor="start" x="1662.094" y="-1252.9" font-family="Arial" font-size="14.00" fill="#666666">[bigint]</text>
<polygon fill="none" stroke="#000000" points="1610,-1211.5 1610,-1241.5 1990,-1241.5 1990,-1211.5 1610,-1211.5"/>
<text text-anchor="start" x="1617" y="-1222.9" font-family="Arial" font-size="14.00" fill="#000000">user_id    </text>
<text text-anchor="start" x="1697.1024" y="-1222.9" font-family="Arial" font-size="14.00" fill="#666666">[bigint]</text>
<polygon fill="none" stroke="#000000" points="1610,-1181.5 1610,-1211.5 1990,-1211.5 1990,-1181.5 1610,-1181.5"/>
<text text-anchor="start" x="1617" y="-1192.9" font-family="Arial" font-size="14.00" fill="#000000">date    </text>
<text text-anchor="start" x="1678.4432" y="-1192.9" font-family="Arial" font-size="14.00" fill="#666666">[date]</text>
<polygon fill="none" stroke="#000000" points="1610,-1151.5 1610,-1181.5 1990,-1181.5 1990,-1151.5 1610,-1151.5"/>
<text text-anchor="start" x="1617" y="-1162.9" font-family="Arial" font-size="14.00" fill="#000000">total_hours    </text>
<text text-anchor="start" x="1720.4488" y="-1162.9" font-family="Arial" font-size="14.00" fill="#666666">[numeric]</text>
<polygon fill="none" stroke="#000000" points="1610,-1121.5 1610,-1151.5 1990,-1151.5 1990,-1121.5 1610,-1121.5"/>
<text text-anchor="start" x="1617" y="-1132.9" font-family="Arial" font-size="14.00" fill="#000000">overtime_hours    </text>
<text text-anchor="start" x="1747.662" y="-1132.9" font-family="Arial" font-size="14.00" fill="#666666">[numeric]</text>
<polygon fill="none" stroke="#000000" points="1610,-1091.5 1610,-1121.5 1990,-1121.5 1990,-1091.5 1610,-1091.5"/>
<text text-anchor="start" x="1617" y="-1102.9" font-family="Arial" font-size="14.00" fill="#000000">status    </text>
<text text-anchor="start" x="1688.5512" y="-1102.9" font-family="Arial" font-size="14.00" fill="#666666">[varchar(20)]</text>
</g>
<!-- public.devices -->
<g id="node9" class="node">
<title>public.devices</title>
<polygon fill="#efefef" stroke="transparent" points="2094,-1256.5 2094,-1291.5 2374,-1291.5 2374,-1256.5 2094,-1256.5"/>
<polygon fill="none" stroke="#000000" points="2094,-1256.5 2094,-1291.5 2374,-1291.5 2374,-1256.5 2094,-1256.5"/>
<text text-anchor="start" x="2113.705" y="-1269.3" font-family="Arial Bold" font-size="18.00" fill="#000000">public.devices</text>
<text text-anchor="start" x="2226.727" y="-1269.3" font-family="Arial" font-size="14.00" fill="#000000">    </text>
<text text-anchor="start" x="2260.9318" y="-1269.3" font-family="Arial" font-size="14.00" fill="#666666">[BASE TABLE]</text>
<polygon fill="none" stroke="#000000" points="2094,-1226.5 2094,-1256.5 2374,-1256.5 2374,-1226.5 2094,-1226.5"/>
<text text-anchor="start" x="2101" y="-1237.9" font-family="Arial" font-size="14.00" fill="#000000">id    </text>
<text text-anchor="start" x="2146.094" y="-1237.9" font-family="Arial" font-size="14.00" fill="#666666">[bigint]</text>
<polygon fill="none" stroke="#000000" points="2094,-1196.5 2094,-1226.5 2374,-1226.5 2374,-1196.5 2094,-1196.5"/>
<text text-anchor="start" x="2101" y="-1207.9" font-family="Arial" font-size="14.00" fill="#000000">user_id    </text>
<text text-anchor="start" x="2181.1024" y="-1207.9" font-family="Arial" font-size="14.00" fill="#666666">[bigint]</text>
<polygon fill="none" stroke="#000000" points="2094,-1166.5 2094,-1196.5 2374,-1196.5 2374,-1166.5 2094,-1166.5"/>
<text text-anchor="start" x="2101" y="-1177.9" font-family="Arial" font-size="14.00" fill="#000000">device_id    </text>
<text text-anchor="start" x="2194.331" y="-1177.9" font-family="Arial" font-size="14.00" fill="#666666">[varchar(100)]</text>
<polygon fill="none" stroke="#000000" points="2094,-1136.5 2094,-1166.5 2374,-1166.5 2374,-1136.5 2094,-1136.5"/>
<text text-anchor="start" x="2101" y="-1147.9" font-family="Arial" font-size="14.00" fill="#000000">is_trusted    </text>
<text text-anchor="start" x="2195.8836" y="-1147.9" font-family="Arial" font-size="14.00" fill="#666666">[boolean]</text>
<polygon fill="none" stroke="#000000" points="2094,-1106.5 2094,-1136.5 2374,-1136.5 2374,-1106.5 2094,-1106.5"/>
<text text-anchor="start" x="2100.9867" y="-1117.9" font-family="Arial" font-size="14.00" fill="#000000">created_at    </text>
<text text-anchor="start" x="2201.3289" y="-1117.9" font-family="Arial" font-size="14.00" fill="#666666">[timestamp with time zone]</text>
</g>
</g>
</svg>
